# MagicaVoxel @ Ephtracy

# group
o 

# material
mtllib home.mtl
usemtl palette

# normals
vn -1 0 0
vn 1 0 0
vn 0 0 1
vn 0 0 -1
vn 0 -1 0
vn 0 1 0

# texcoords
vt 0.310547 0.5
vt 0.583984 0.5
vt 0.705078 0.5
vt 0.892578 0.5

# verts
v -1.3 0.3 2.4
v -1.3 0.3 -1.8
v -1.3 1.9 2.4
v -1.3 1.9 -1.8
v -1.3 2.1 2.4
v -1.3 2.1 -1.8
v -1.1 2.1 -0.4
v -1.1 2.1 -0.5
v -1.1 2.1 -1.3
v -1.1 2.1 -1.4
v -1.1 2.2 -0.4
v -1.1 2.2 -0.5
v -1.1 2.2 -1.3
v -1.1 2.2 -1.4
v -1 2.1 -0.8
v -1 2.1 -1
v -1 2.2 -0.8
v -1 2.2 -1
v -0.8 2.1 -0.5
v -0.8 2.1 -0.8
v -0.8 2.1 -1
v -0.8 2.1 -1.3
v -0.8 2.2 -0.5
v -0.8 2.2 -0.8
v -0.8 2.2 -1
v -0.8 2.2 -1.3
v -0.6 2.1 -0.4
v -0.6 2.1 -1.4
v -0.6 2.2 -0.4
v -0.6 2.2 -1.4
v -0.4 2.1 -0.6
v -0.4 2.1 -0.7
v -0.4 2.2 -0.6
v -0.4 2.2 -0.7
v -0.3 2.1 -0.5
v -0.3 2.1 -0.6
v -0.3 2.2 -0.5
v -0.3 2.2 -0.6
v -0.2 2.1 -0.4
v -0.2 2.1 -0.5
v -0.2 2.1 -0.6
v -0.2 2.1 -1.4
v -0.2 2.2 -0.4
v -0.2 2.2 -0.5
v -0.2 2.2 -0.6
v -0.2 2.2 -1.4
v -1.19209e-07 2.1 -0.4
v -1.19209e-07 2.1 -1.4
v -1.19209e-07 2.2 -0.4
v -1.19209e-07 2.2 -1.4
v 0.3 2.1 -0.5
v 0.3 2.1 -1.3
v 0.3 2.2 -0.5
v 0.3 2.2 -1.3
v 0.5 2.1 -0.4
v 0.5 2.1 -1.4
v 0.5 2.2 -0.4
v 0.5 2.2 -1.4
v 0.7 2 1.1
v 0.7 2 0
v 0.7 2.1 1.1
v 0.7 2.1 0
v 0.9 2.1 -0.4
v 0.9 2.1 -0.8
v 0.9 2.1 -0.9
v 0.9 2.1 -1.4
v 0.9 2.2 -0.4
v 0.9 2.2 -0.8
v 0.9 2.2 -0.9
v 0.9 2.2 -1.4
v 1 0.3 1.4
v 1 0.3 -1
v 1 0.4 1
v 1 0.4 -0.3
v 1 0.5 0.9
v 1 0.5 -0.3
v 1 0.5 -0.4
v 1 0.6 -0.3
v 1 0.6 -0.4
v 1 1.7 1
v 1 1.7 0.9
v 1 1.7 -0.3
v 1 1.9 1.4
v 1 1.9 -1
v 1 2 1.4
v 1 2 -1
v 1.1 0.5 0.9
v 1.1 0.5 -0.3
v 1.1 0.6 -0.3
v 1.1 1.7 0.9
v 1.1 1.7 -0.3
v -1.2 0.3 1.4
v -1.2 0.3 -1
v -1.2 1.9 1.4
v -1.2 1.9 -1
v -1.2 2 1.4
v -1.2 2 -1
v -0.8 2 1.1
v -0.8 2 0
v -0.8 2.1 1.1
v -0.8 2.1 0
v -0.7 2.1 -0.4
v -0.7 2.1 -1.4
v -0.7 2.2 -0.4
v -0.7 2.2 -1.4
v -0.5 2.1 -0.4
v -0.5 2.1 -0.5
v -0.5 2.1 -0.6
v -0.5 2.1 -1.4
v -0.5 2.2 -0.4
v -0.5 2.2 -0.5
v -0.5 2.2 -0.6
v -0.5 2.2 -1.4
v -0.4 2.1 -0.5
v -0.4 2.1 -0.6
v -0.4 2.2 -0.5
v -0.4 2.2 -0.6
v -0.3 2.1 -0.6
v -0.3 2.1 -0.7
v -0.3 2.2 -0.6
v -0.3 2.2 -0.7
v -0.1 2.1 -0.4
v -0.1 2.1 -1.4
v -0.1 2.2 -0.4
v -0.1 2.2 -1.4
v 0.0999999 2.1 -0.5
v 0.0999999 2.1 -1.3
v 0.0999999 2.2 -0.5
v 0.0999999 2.2 -1.3
v 0.4 2.1 -0.4
v 0.4 2.1 -1.4
v 0.4 2.2 -0.4
v 0.4 2.2 -1.4
v 0.6 2.1 -0.4
v 0.6 2.1 -0.8
v 0.6 2.1 -0.9
v 0.6 2.1 -1.4
v 0.6 2.2 -0.4
v 0.6 2.2 -0.8
v 0.6 2.2 -0.9
v 0.6 2.2 -1.4
v 1 2.1 -0.4
v 1 2.1 -1.4
v 1 2.2 -0.4
v 1 2.2 -1.4
v 1.2 0.3 2.4
v 1.2 0.3 -1.8
v 1.2 1.9 2.4
v 1.2 1.9 -1.8
v 1.2 2.1 2.4
v 1.2 2.1 -1.8
v -1.3 0.3 2.4
v -1.3 1.9 2.4
v -1.3 2.1 2.4
v 1.2 0.3 2.4
v 1.2 1.9 2.4
v 1.2 2.1 2.4
v -0.8 2 0
v -0.8 2.1 0
v 0.7 2 0
v 0.7 2.1 0
v 1 0.5 -0.3
v 1 0.6 -0.3
v 1 1.7 -0.3
v 1.1 0.5 -0.3
v 1.1 0.6 -0.3
v 1.1 1.7 -0.3
v -1.1 2.1 -0.4
v -1.1 2.2 -0.4
v -0.7 2.1 -0.4
v -0.7 2.2 -0.4
v -0.6 2.1 -0.4
v -0.6 2.2 -0.4
v -0.5 2.1 -0.4
v -0.5 2.2 -0.4
v -0.2 2.1 -0.4
v -0.2 2.2 -0.4
v -0.1 2.1 -0.4
v -0.1 2.2 -0.4
v -1.19209e-07 2.1 -0.4
v -1.19209e-07 2.2 -0.4
v 0.4 2.1 -0.4
v 0.4 2.2 -0.4
v 0.5 2.1 -0.4
v 0.5 2.2 -0.4
v 0.6 2.1 -0.4
v 0.6 2.2 -0.4
v 0.9 2.1 -0.4
v 0.9 2.2 -0.4
v 1 2.1 -0.4
v 1 2.2 -0.4
v -0.5 2.1 -0.5
v -0.5 2.2 -0.5
v -0.4 2.1 -0.5
v -0.4 2.2 -0.5
v -0.3 2.1 -0.5
v -0.3 2.2 -0.5
v -0.2 2.1 -0.5
v -0.2 2.2 -0.5
v -0.4 2.1 -0.6
v -0.4 2.2 -0.6
v -0.3 2.1 -0.6
v -0.3 2.2 -0.6
v -1 2.1 -0.8
v -1 2.2 -0.8
v -0.8 2.1 -0.8
v -0.8 2.2 -0.8
v 0.6 2.1 -0.8
v 0.6 2.2 -0.8
v 0.9 2.1 -0.8
v 0.9 2.2 -0.8
v -1.2 0.3 -1
v -1.2 1.9 -1
v -1.2 2 -1
v 1 0.3 -1
v 1 1.9 -1
v 1 2 -1
v -1.1 2.1 -1.3
v -1.1 2.2 -1.3
v -0.8 2.1 -1.3
v -0.8 2.2 -1.3
v 0.0999999 2.1 -1.3
v 0.0999999 2.2 -1.3
v 0.3 2.1 -1.3
v 0.3 2.2 -1.3
v -1.2 0.3 1.4
v -1.2 1.9 1.4
v -1.2 2 1.4
v -0.1 2 1.4
v -1.19209e-07 2 1.4
v 1 0.3 1.4
v 1 1.9 1.4
v 1 2 1.4
v -0.8 2 1.1
v -0.8 2.1 1.1
v 0.7 2 1.1
v 0.7 2.1 1.1
v 1 0.5 0.9
v 1 1.7 0.9
v 1.1 0.5 0.9
v 1.1 1.7 0.9
v -1.1 2.1 -0.5
v -1.1 2.2 -0.5
v -0.8 2.1 -0.5
v -0.8 2.2 -0.5
v 0.0999999 2.1 -0.5
v 0.0999999 2.2 -0.5
v 0.3 2.1 -0.5
v 0.3 2.2 -0.5
v -0.5 2.1 -0.6
v -0.5 2.2 -0.6
v -0.4 2.1 -0.6
v -0.4 2.2 -0.6
v -0.3 2.1 -0.6
v -0.3 2.2 -0.6
v -0.2 2.1 -0.6
v -0.2 2.2 -0.6
v -0.4 2.1 -0.7
v -0.4 2.2 -0.7
v -0.3 2.1 -0.7
v -0.3 2.2 -0.7
v 0.6 2.1 -0.9
v 0.6 2.2 -0.9
v 0.9 2.1 -0.9
v 0.9 2.2 -0.9
v -1 2.1 -1
v -1 2.2 -1
v -0.8 2.1 -1
v -0.8 2.2 -1
v -1.1 2.1 -1.4
v -1.1 2.2 -1.4
v -0.7 2.1 -1.4
v -0.7 2.2 -1.4
v -0.6 2.1 -1.4
v -0.6 2.2 -1.4
v -0.5 2.1 -1.4
v -0.5 2.2 -1.4
v -0.2 2.1 -1.4
v -0.2 2.2 -1.4
v -0.1 2.1 -1.4
v -0.1 2.2 -1.4
v -1.19209e-07 2.1 -1.4
v -1.19209e-07 2.2 -1.4
v 0.4 2.1 -1.4
v 0.4 2.2 -1.4
v 0.5 2.1 -1.4
v 0.5 2.2 -1.4
v 0.6 2.1 -1.4
v 0.6 2.2 -1.4
v 0.9 2.1 -1.4
v 0.9 2.2 -1.4
v 1 2.1 -1.4
v 1 2.2 -1.4
v -1.3 0.3 -1.8
v -1.3 1.9 -1.8
v -1.3 2.1 -1.8
v 1.2 0.3 -1.8
v 1.2 1.9 -1.8
v 1.2 2.1 -1.8
v -1.3 0.3 2.4
v 1.2 0.3 2.4
v -1.2 0.3 1.4
v 1 0.3 1.4
v -1.2 0.3 -1
v 1 0.3 -1
v -1.3 0.3 -1.8
v 1.2 0.3 -1.8
v 1 1.7 0.9
v 1.1 1.7 0.9
v 1 1.7 -0.3
v 1.1 1.7 -0.3
v -1.2 2 1.4
v -0.1 2 1.4
v -1.19209e-07 2 1.4
v 1 2 1.4
v -0.1 2 1.3
v -1.19209e-07 2 1.3
v -0.9 2 1.2
v 0.8 2 1.2
v -0.8 2 1.1
v 0.7 2 1.1
v -0.8 2 0
v 0.7 2 0
v -0.9 2 -0.1
v 0.8 2 -0.1
v -1.2 2 -1
v 1 2 -1
v 1 0.5 0.9
v 1.1 0.5 0.9
v 1 0.5 -0.3
v 1.1 0.5 -0.3
v -1.3 2.1 2.4
v 1.2 2.1 2.4
v -0.2 2.1 2.2
v 0.0999999 2.1 2.2
v -0.4 2.1 1.8
v -0.2 2.1 1.8
v 0.0999999 2.1 1.8
v 0.3 2.1 1.8
v -0.4 2.1 1.6
v -0.3 2.1 1.6
v 0.2 2.1 1.6
v 0.3 2.1 1.6
v -0.3 2.1 1.5
v -0.2 2.1 1.5
v 0.0999999 2.1 1.5
v 0.2 2.1 1.5
v -0.2 2.1 1.4
v -0.1 2.1 1.4
v -1.19209e-07 2.1 1.4
v 0.0999999 2.1 1.4
v -0.1 2.1 1.3
v -1.19209e-07 2.1 1.3
v -0.9 2.1 1.2
v 0.8 2.1 1.2
v -0.8 2.1 1.1
v 0.7 2.1 1.1
v -0.8 2.1 0
v 0.7 2.1 0
v -0.9 2.1 -0.1
v 0.8 2.1 -0.1
v -1.1 2.1 -0.4
v -0.7 2.1 -0.4
v -0.6 2.1 -0.4
v -0.5 2.1 -0.4
v -0.2 2.1 -0.4
v -0.1 2.1 -0.4
v -1.19209e-07 2.1 -0.4
v 0.4 2.1 -0.4
v 0.5 2.1 -0.4
v 0.6 2.1 -0.4
v 0.9 2.1 -0.4
v 1 2.1 -0.4
v -1.1 2.1 -0.5
v -0.8 2.1 -0.5
v -0.5 2.1 -0.5
v -0.4 2.1 -0.5
v -0.3 2.1 -0.5
v -0.2 2.1 -0.5
v 0.0999999 2.1 -0.5
v 0.3 2.1 -0.5
v -0.5 2.1 -0.6
v -0.4 2.1 -0.6
v -0.3 2.1 -0.6
v -0.2 2.1 -0.6
v -0.4 2.1 -0.7
v -0.3 2.1 -0.7
v -1 2.1 -0.8
v -0.8 2.1 -0.8
v 0.6 2.1 -0.8
v 0.9 2.1 -0.8
v 0.6 2.1 -0.9
v 0.9 2.1 -0.9
v -1 2.1 -1
v -0.8 2.1 -1
v -1.1 2.1 -1.3
v -0.8 2.1 -1.3
v 0.0999999 2.1 -1.3
v 0.3 2.1 -1.3
v -1.1 2.1 -1.4
v -0.7 2.1 -1.4
v -0.6 2.1 -1.4
v -0.5 2.1 -1.4
v -0.2 2.1 -1.4
v -0.1 2.1 -1.4
v -1.19209e-07 2.1 -1.4
v 0.4 2.1 -1.4
v 0.5 2.1 -1.4
v 0.6 2.1 -1.4
v 0.9 2.1 -1.4
v 1 2.1 -1.4
v -1.3 2.1 -1.8
v 1.2 2.1 -1.8
v -1.1 2.2 -0.4
v -0.7 2.2 -0.4
v -0.6 2.2 -0.4
v -0.5 2.2 -0.4
v -0.2 2.2 -0.4
v -0.1 2.2 -0.4
v -1.19209e-07 2.2 -0.4
v 0.4 2.2 -0.4
v 0.5 2.2 -0.4
v 0.6 2.2 -0.4
v 0.9 2.2 -0.4
v 1 2.2 -0.4
v -1.1 2.2 -0.5
v -0.8 2.2 -0.5
v -0.5 2.2 -0.5
v -0.4 2.2 -0.5
v -0.3 2.2 -0.5
v -0.2 2.2 -0.5
v 0.0999999 2.2 -0.5
v 0.3 2.2 -0.5
v -0.5 2.2 -0.6
v -0.4 2.2 -0.6
v -0.3 2.2 -0.6
v -0.2 2.2 -0.6
v -0.4 2.2 -0.7
v -0.3 2.2 -0.7
v -1 2.2 -0.8
v -0.8 2.2 -0.8
v 0.6 2.2 -0.8
v 0.9 2.2 -0.8
v 0.6 2.2 -0.9
v 0.9 2.2 -0.9
v -1 2.2 -1
v -0.8 2.2 -1
v -1.1 2.2 -1.3
v -0.8 2.2 -1.3
v 0.0999999 2.2 -1.3
v 0.3 2.2 -1.3
v -1.1 2.2 -1.4
v -0.7 2.2 -1.4
v -0.6 2.2 -1.4
v -0.5 2.2 -1.4
v -0.2 2.2 -1.4
v -0.1 2.2 -1.4
v -1.19209e-07 2.2 -1.4
v 0.4 2.2 -1.4
v 0.5 2.2 -1.4
v 0.6 2.2 -1.4
v 0.9 2.2 -1.4
v 1 2.2 -1.4

# faces
f 3/3/1 2/3/1 1/3/1
f 4/3/1 2/3/1 3/3/1
f 5/1/1 4/1/1 3/1/1
f 6/1/1 4/1/1 5/1/1
f 11/4/1 8/4/1 7/4/1
f 12/4/1 8/4/1 11/4/1
f 13/4/1 10/4/1 9/4/1
f 14/4/1 10/4/1 13/4/1
f 17/4/1 16/4/1 15/4/1
f 18/4/1 16/4/1 17/4/1
f 23/4/1 20/4/1 19/4/1
f 24/4/1 20/4/1 23/4/1
f 25/4/1 22/4/1 21/4/1
f 26/4/1 22/4/1 25/4/1
f 29/4/1 28/4/1 27/4/1
f 30/4/1 28/4/1 29/4/1
f 33/4/1 32/4/1 31/4/1
f 34/4/1 32/4/1 33/4/1
f 37/4/1 36/4/1 35/4/1
f 38/4/1 36/4/1 37/4/1
f 43/4/1 40/4/1 39/4/1
f 44/4/1 40/4/1 43/4/1
f 45/4/1 42/4/1 41/4/1
f 46/4/1 42/4/1 45/4/1
f 49/4/1 48/4/1 47/4/1
f 50/4/1 48/4/1 49/4/1
f 53/4/1 52/4/1 51/4/1
f 54/4/1 52/4/1 53/4/1
f 57/4/1 56/4/1 55/4/1
f 58/4/1 56/4/1 57/4/1
f 61/4/1 60/4/1 59/4/1
f 62/4/1 60/4/1 61/4/1
f 67/4/1 64/4/1 63/4/1
f 68/4/1 64/4/1 67/4/1
f 69/4/1 66/4/1 65/4/1
f 70/4/1 66/4/1 69/4/1
f 73/3/1 72/3/1 71/3/1
f 74/3/1 72/3/1 73/3/1
f 75/4/1 74/4/1 73/4/1
f 76/3/1 72/3/1 74/3/1
f 76/4/1 74/4/1 75/4/1
f 77/3/1 72/3/1 76/3/1
f 78/2/1 77/2/1 76/2/1
f 79/3/1 72/3/1 77/3/1
f 79/2/1 77/2/1 78/2/1
f 80/3/1 73/3/1 71/3/1
f 80/4/1 75/4/1 73/4/1
f 81/4/1 75/4/1 80/4/1
f 82/3/1 79/3/1 78/3/1
f 83/3/1 81/3/1 80/3/1
f 83/3/1 82/3/1 81/3/1
f 83/3/1 80/3/1 71/3/1
f 84/3/1 72/3/1 79/3/1
f 84/3/1 82/3/1 83/3/1
f 84/3/1 79/3/1 82/3/1
f 85/1/1 84/1/1 83/1/1
f 86/1/1 84/1/1 85/1/1
f 89/3/1 88/3/1 87/3/1
f 90/3/1 89/3/1 87/3/1
f 91/3/1 89/3/1 90/3/1
f 92/3/2 93/3/2 94/3/2
f 94/3/2 93/3/2 95/3/2
f 94/1/2 95/1/2 96/1/2
f 96/1/2 95/1/2 97/1/2
f 98/4/2 99/4/2 100/4/2
f 100/4/2 99/4/2 101/4/2
f 102/4/2 103/4/2 104/4/2
f 104/4/2 103/4/2 105/4/2
f 106/4/2 107/4/2 110/4/2
f 110/4/2 107/4/2 111/4/2
f 108/4/2 109/4/2 112/4/2
f 112/4/2 109/4/2 113/4/2
f 114/4/2 115/4/2 116/4/2
f 116/4/2 115/4/2 117/4/2
f 118/4/2 119/4/2 120/4/2
f 120/4/2 119/4/2 121/4/2
f 122/4/2 123/4/2 124/4/2
f 124/4/2 123/4/2 125/4/2
f 126/4/2 127/4/2 128/4/2
f 128/4/2 127/4/2 129/4/2
f 130/4/2 131/4/2 132/4/2
f 132/4/2 131/4/2 133/4/2
f 134/4/2 135/4/2 138/4/2
f 138/4/2 135/4/2 139/4/2
f 136/4/2 137/4/2 140/4/2
f 140/4/2 137/4/2 141/4/2
f 142/4/2 143/4/2 144/4/2
f 144/4/2 143/4/2 145/4/2
f 146/3/2 147/3/2 148/3/2
f 148/3/2 147/3/2 149/3/2
f 148/1/2 149/1/2 150/1/2
f 150/1/2 149/1/2 151/1/2
f 155/3/3 153/3/3 152/3/3
f 156/1/3 154/1/3 153/1/3
f 156/3/3 153/3/3 155/3/3
f 157/1/3 154/1/3 156/1/3
f 160/4/3 159/4/3 158/4/3
f 161/4/3 159/4/3 160/4/3
f 165/2/3 163/2/3 162/2/3
f 166/3/3 164/3/3 163/3/3
f 166/2/3 163/2/3 165/2/3
f 167/3/3 164/3/3 166/3/3
f 170/4/3 169/4/3 168/4/3
f 171/4/3 169/4/3 170/4/3
f 174/4/3 173/4/3 172/4/3
f 175/4/3 173/4/3 174/4/3
f 178/4/3 177/4/3 176/4/3
f 179/4/3 177/4/3 178/4/3
f 182/4/3 181/4/3 180/4/3
f 183/4/3 181/4/3 182/4/3
f 186/4/3 185/4/3 184/4/3
f 187/4/3 185/4/3 186/4/3
f 190/4/3 189/4/3 188/4/3
f 191/4/3 189/4/3 190/4/3
f 194/4/3 193/4/3 192/4/3
f 195/4/3 193/4/3 194/4/3
f 198/4/3 197/4/3 196/4/3
f 199/4/3 197/4/3 198/4/3
f 202/4/3 201/4/3 200/4/3
f 203/4/3 201/4/3 202/4/3
f 206/4/3 205/4/3 204/4/3
f 207/4/3 205/4/3 206/4/3
f 210/4/3 209/4/3 208/4/3
f 211/4/3 209/4/3 210/4/3
f 215/3/3 213/3/3 212/3/3
f 216/1/3 214/1/3 213/1/3
f 216/3/3 213/3/3 215/3/3
f 217/1/3 214/1/3 216/1/3
f 220/4/3 219/4/3 218/4/3
f 221/4/3 219/4/3 220/4/3
f 224/4/3 223/4/3 222/4/3
f 225/4/3 223/4/3 224/4/3
f 227/1/4 228/1/4 229/1/4
f 227/1/4 229/1/4 230/1/4
f 226/3/4 227/3/4 231/3/4
f 227/1/4 230/1/4 232/1/4
f 231/3/4 227/3/4 232/3/4
f 232/1/4 230/1/4 233/1/4
f 234/4/4 235/4/4 236/4/4
f 236/4/4 235/4/4 237/4/4
f 238/4/4 239/4/4 240/4/4
f 240/4/4 239/4/4 241/4/4
f 242/4/4 243/4/4 244/4/4
f 244/4/4 243/4/4 245/4/4
f 246/4/4 247/4/4 248/4/4
f 248/4/4 247/4/4 249/4/4
f 250/4/4 251/4/4 252/4/4
f 252/4/4 251/4/4 253/4/4
f 254/4/4 255/4/4 256/4/4
f 256/4/4 255/4/4 257/4/4
f 258/4/4 259/4/4 260/4/4
f 260/4/4 259/4/4 261/4/4
f 262/4/4 263/4/4 264/4/4
f 264/4/4 263/4/4 265/4/4
f 266/4/4 267/4/4 268/4/4
f 268/4/4 267/4/4 269/4/4
f 270/4/4 271/4/4 272/4/4
f 272/4/4 271/4/4 273/4/4
f 274/4/4 275/4/4 276/4/4
f 276/4/4 275/4/4 277/4/4
f 278/4/4 279/4/4 280/4/4
f 280/4/4 279/4/4 281/4/4
f 282/4/4 283/4/4 284/4/4
f 284/4/4 283/4/4 285/4/4
f 286/4/4 287/4/4 288/4/4
f 288/4/4 287/4/4 289/4/4
f 290/4/4 291/4/4 292/4/4
f 292/4/4 291/4/4 293/4/4
f 294/3/4 295/3/4 297/3/4
f 295/1/4 296/1/4 298/1/4
f 297/3/4 295/3/4 298/3/4
f 298/1/4 296/1/4 299/1/4
f 302/3/5 301/3/5 300/3/5
f 303/3/5 301/3/5 302/3/5
f 304/3/5 302/3/5 300/3/5
f 305/3/5 301/3/5 303/3/5
f 306/3/5 304/3/5 300/3/5
f 306/3/5 305/3/5 304/3/5
f 307/3/5 301/3/5 305/3/5
f 307/3/5 305/3/5 306/3/5
f 310/3/5 309/3/5 308/3/5
f 311/3/5 309/3/5 310/3/5
f 316/1/5 313/1/5 312/1/5
f 316/4/5 314/4/5 313/4/5
f 317/1/5 315/1/5 314/1/5
f 317/4/5 314/4/5 316/4/5
f 318/1/5 316/1/5 312/1/5
f 318/1/5 317/1/5 316/1/5
f 319/1/5 315/1/5 317/1/5
f 319/1/5 317/1/5 318/1/5
f 320/4/5 319/4/5 318/4/5
f 321/4/5 319/4/5 320/4/5
f 322/4/5 320/4/5 318/4/5
f 323/4/5 319/4/5 321/4/5
f 324/1/5 318/1/5 312/1/5
f 324/4/5 323/4/5 322/4/5
f 324/4/5 322/4/5 318/4/5
f 325/4/5 319/4/5 323/4/5
f 325/4/5 323/4/5 324/4/5
f 325/1/5 315/1/5 319/1/5
f 326/1/5 324/1/5 312/1/5
f 326/1/5 325/1/5 324/1/5
f 327/1/5 315/1/5 325/1/5
f 327/1/5 325/1/5 326/1/5
f 328/4/6 329/4/6 330/4/6
f 330/4/6 329/4/6 331/4/6
f 332/1/6 333/1/6 334/1/6
f 334/1/6 333/1/6 335/1/6
f 332/1/6 334/1/6 336/1/6
f 334/4/6 335/4/6 337/4/6
f 336/1/6 334/1/6 337/1/6
f 335/1/6 333/1/6 338/1/6
f 337/4/6 335/4/6 338/4/6
f 338/1/6 333/1/6 339/1/6
f 336/4/6 337/4/6 340/4/6
f 332/1/6 336/1/6 340/1/6
f 338/4/6 339/4/6 340/4/6
f 337/4/6 338/4/6 340/4/6
f 340/4/6 339/4/6 341/4/6
f 341/4/6 339/4/6 342/4/6
f 339/1/6 333/1/6 343/1/6
f 342/4/6 339/4/6 343/4/6
f 341/4/6 342/4/6 344/4/6
f 340/1/6 341/1/6 344/1/6
f 344/4/6 342/4/6 345/4/6
f 345/4/6 342/4/6 346/4/6
f 342/1/6 343/1/6 347/1/6
f 346/4/6 342/4/6 347/4/6
f 345/4/6 346/4/6 348/4/6
f 344/1/6 345/1/6 348/1/6
f 348/4/6 346/4/6 349/4/6
f 349/4/6 346/4/6 350/4/6
f 346/1/6 347/1/6 351/1/6
f 350/4/6 346/4/6 351/4/6
f 349/4/6 350/4/6 352/4/6
f 348/1/6 349/1/6 352/1/6
f 350/1/6 351/1/6 353/1/6
f 352/4/6 350/4/6 353/4/6
f 332/1/6 340/1/6 354/1/6
f 340/1/6 344/1/6 354/1/6
f 352/1/6 353/1/6 354/1/6
f 348/1/6 352/1/6 354/1/6
f 344/1/6 348/1/6 354/1/6
f 343/1/6 333/1/6 355/1/6
f 354/1/6 353/1/6 355/1/6
f 353/1/6 351/1/6 355/1/6
f 351/1/6 347/1/6 355/1/6
f 347/1/6 343/1/6 355/1/6
f 354/4/6 355/4/6 356/4/6
f 356/4/6 355/4/6 357/4/6
f 354/4/6 356/4/6 358/4/6
f 357/4/6 355/4/6 359/4/6
f 332/1/6 354/1/6 360/1/6
f 358/4/6 359/4/6 360/4/6
f 354/4/6 358/4/6 360/4/6
f 359/4/6 355/4/6 361/4/6
f 360/4/6 359/4/6 361/4/6
f 355/1/6 333/1/6 361/1/6
f 332/1/6 360/1/6 362/1/6
f 360/1/6 361/1/6 362/1/6
f 362/1/6 361/1/6 363/1/6
f 363/1/6 361/1/6 364/1/6
f 364/1/6 361/1/6 365/1/6
f 365/1/6 361/1/6 366/1/6
f 366/1/6 361/1/6 367/1/6
f 367/1/6 361/1/6 368/1/6
f 368/1/6 361/1/6 369/1/6
f 369/1/6 361/1/6 370/1/6
f 370/1/6 361/1/6 371/1/6
f 361/1/6 333/1/6 372/1/6
f 371/1/6 361/1/6 372/1/6
f 372/1/6 333/1/6 373/1/6
f 332/1/6 362/1/6 374/1/6
f 365/1/6 366/1/6 376/1/6
f 376/1/6 366/1/6 377/1/6
f 377/1/6 366/1/6 378/1/6
f 378/1/6 366/1/6 379/1/6
f 377/1/6 378/1/6 383/1/6
f 383/1/6 378/1/6 384/1/6
f 382/1/6 383/1/6 386/1/6
f 384/1/6 385/1/6 387/1/6
f 374/1/6 375/1/6 388/1/6
f 388/1/6 375/1/6 389/1/6
f 371/1/6 372/1/6 390/1/6
f 390/1/6 372/1/6 391/1/6
f 374/1/6 388/1/6 394/1/6
f 332/1/6 374/1/6 396/1/6
f 394/1/6 395/1/6 396/1/6
f 374/1/6 394/1/6 396/1/6
f 396/1/6 395/1/6 397/1/6
f 380/1/6 381/1/6 398/1/6
f 398/1/6 381/1/6 399/1/6
f 332/1/6 396/1/6 400/1/6
f 363/1/6 364/1/6 401/1/6
f 401/1/6 364/1/6 402/1/6
f 386/1/6 387/1/6 403/1/6
f 382/1/6 386/1/6 403/1/6
f 387/1/6 385/1/6 404/1/6
f 403/1/6 387/1/6 404/1/6
f 367/1/6 368/1/6 405/1/6
f 405/1/6 368/1/6 406/1/6
f 369/1/6 370/1/6 407/1/6
f 407/1/6 370/1/6 408/1/6
f 392/1/6 393/1/6 409/1/6
f 409/1/6 393/1/6 410/1/6
f 373/1/6 333/1/6 411/1/6
f 409/1/6 410/1/6 412/1/6
f 410/1/6 411/1/6 412/1/6
f 408/1/6 409/1/6 412/1/6
f 405/1/6 406/1/6 412/1/6
f 332/1/6 400/1/6 412/1/6
f 406/1/6 407/1/6 412/1/6
f 403/1/6 404/1/6 412/1/6
f 401/1/6 402/1/6 412/1/6
f 404/1/6 405/1/6 412/1/6
f 400/1/6 401/1/6 412/1/6
f 402/1/6 403/1/6 412/1/6
f 407/1/6 408/1/6 412/1/6
f 411/1/6 333/1/6 413/1/6
f 412/1/6 411/1/6 413/1/6
f 414/4/6 415/4/6 426/4/6
f 426/4/6 415/4/6 427/4/6
f 416/4/6 417/4/6 428/4/6
f 418/4/6 419/4/6 431/4/6
f 420/4/6 421/4/6 432/4/6
f 432/4/6 421/4/6 433/4/6
f 428/4/6 429/4/6 434/4/6
f 416/4/6 428/4/6 434/4/6
f 434/4/6 429/4/6 435/4/6
f 430/4/6 431/4/6 436/4/6
f 431/4/6 419/4/6 437/4/6
f 436/4/6 431/4/6 437/4/6
f 435/4/6 436/4/6 438/4/6
f 438/4/6 436/4/6 439/4/6
f 427/4/6 415/4/6 441/4/6
f 422/4/6 423/4/6 442/4/6
f 424/4/6 425/4/6 443/4/6
f 422/4/6 442/4/6 444/4/6
f 442/4/6 443/4/6 444/4/6
f 443/4/6 425/4/6 445/4/6
f 444/4/6 443/4/6 445/4/6
f 440/4/6 441/4/6 446/4/6
f 441/4/6 415/4/6 447/4/6
f 446/4/6 441/4/6 447/4/6
f 447/4/6 415/4/6 449/4/6
f 420/4/6 432/4/6 450/4/6
f 433/4/6 421/4/6 451/4/6
f 448/4/6 449/4/6 452/4/6
f 449/4/6 415/4/6 453/4/6
f 452/4/6 449/4/6 453/4/6
f 416/4/6 434/4/6 454/4/6
f 454/4/6 434/4/6 455/4/6
f 437/4/6 419/4/6 456/4/6
f 456/4/6 419/4/6 457/4/6
f 420/4/6 450/4/6 458/4/6
f 450/4/6 451/4/6 458/4/6
f 451/4/6 421/4/6 459/4/6
f 458/4/6 451/4/6 459/4/6
f 422/4/6 444/4/6 460/4/6
f 460/4/6 444/4/6 461/4/6
f 445/4/6 425/4/6 462/4/6
f 462/4/6 425/4/6 463/4/6
