# MagicaVoxel @ Ephtracy

# group
o 

# material
mtllib seed-bag.mtl
usemtl palette

# normals
vn -1 0 0
vn 1 0 0
vn 0 0 1
vn 0 0 -1
vn 0 -1 0
vn 0 1 0

# texcoords
vt 0.498047 0.5
vt 0.935547 0.5
vt 0.986328 0.5

# verts
v -0.9 1.7 0.8
v -0.9 1.7 -1.1
v -0.9 1.9 0.8
v -0.9 1.9 -1.1
v -0.8 0 0.7
v -0.8 0 -1
v -0.8 1.7 0.7
v -0.8 1.7 -1
v -0.3 0.5 0.8
v -0.3 0.5 0.7
v -0.3 1.2 0.8
v -0.3 1.2 0.7
v -0.2 0.4 0.8
v -0.2 0.4 0.7
v -0.2 0.5 0.8
v -0.2 0.5 0.7
v -0.2 1.2 0.8
v -0.2 1.2 0.7
v -0.2 1.3 0.8
v -0.2 1.3 0.7
v -0.1 0.3 0.8
v -0.1 0.3 0.7
v -0.1 0.4 0.8
v -0.1 0.4 0.7
v -0.1 0.5 0.9
v -0.1 0.5 0.8
v -0.1 1.2 0.9
v -0.1 1.2 0.8
v -0.1 1.3 0.8
v -0.1 1.3 0.7
v -0.1 1.4 0.8
v -0.1 1.4 0.7
v 0 0.2 0.8
v 0 0.2 0.7
v 0 0.3 0.8
v 0 0.3 0.7
v 0 0.6 1
v 0 0.6 0.9
v 0 1.1 1
v 0 1.1 0.9
v 0 1.4 0.8
v 0 1.4 0.7
v 0 1.5 0.8
v 0 1.5 0.7
v 0.1 0 -1.19209e-07
v 0.1 0 -0.1
v 0.1 0.8 -1.19209e-07
v 0.1 0.8 -0.1
v 0.8 0.8 0.6
v 0.8 0.8 -0.9
v 0.8 1.8 0.6
v 0.8 1.8 -0.9
v 0.9 1.8 0.7
v 0.9 1.8 -1
v 0.9 1.9 0.7
v 0.9 1.9 -1
v -0.8 1.8 0.7
v -0.8 1.8 -1
v -0.8 1.9 0.7
v -0.8 1.9 -1
v -0.7 0.8 0.6
v -0.7 0.8 -0.9
v -0.7 1.8 0.6
v -0.7 1.8 -0.9
v 0 0 -1.19209e-07
v 0 0 -0.1
v 0 0.8 -1.19209e-07
v 0 0.8 -0.1
v 0.1 0.2 0.8
v 0.1 0.2 0.7
v 0.1 0.3 0.8
v 0.1 0.3 0.7
v 0.1 0.6 1
v 0.1 0.6 0.9
v 0.1 1.1 1
v 0.1 1.1 0.9
v 0.1 1.4 0.8
v 0.1 1.4 0.7
v 0.1 1.5 0.8
v 0.1 1.5 0.7
v 0.2 0.3 0.8
v 0.2 0.3 0.7
v 0.2 0.4 0.8
v 0.2 0.4 0.7
v 0.2 0.5 0.9
v 0.2 0.5 0.8
v 0.2 1.2 0.9
v 0.2 1.2 0.8
v 0.2 1.3 0.8
v 0.2 1.3 0.7
v 0.2 1.4 0.8
v 0.2 1.4 0.7
v 0.3 0.4 0.8
v 0.3 0.4 0.7
v 0.3 0.5 0.8
v 0.3 0.5 0.7
v 0.3 1.2 0.8
v 0.3 1.2 0.7
v 0.3 1.3 0.8
v 0.3 1.3 0.7
v 0.4 0.5 0.8
v 0.4 0.5 0.7
v 0.4 1.2 0.8
v 0.4 1.2 0.7
v 0.9 0 0.7
v 0.9 0 -1
v 0.9 1.7 0.7
v 0.9 1.7 -1
v 1 1.7 0.8
v 1 1.7 -1.1
v 1 1.9 0.8
v 1 1.9 -1.1
v 0 0.6 1
v 0 1.1 1
v 0.1 0.6 1
v 0.1 1.1 1
v -0.1 0.5 0.9
v -0.1 1.2 0.9
v 0 0.6 0.9
v 0 1.1 0.9
v 0.1 0.6 0.9
v 0.1 1.1 0.9
v 0.2 0.5 0.9
v 0.2 1.2 0.9
v -0.9 1.7 0.8
v -0.9 1.9 0.8
v -0.3 0.5 0.8
v -0.3 1.2 0.8
v -0.2 0.4 0.8
v -0.2 0.5 0.8
v -0.2 1.2 0.8
v -0.2 1.3 0.8
v -0.1 0.3 0.8
v -0.1 0.4 0.8
v -0.1 0.5 0.8
v -0.1 1.2 0.8
v -0.1 1.3 0.8
v -0.1 1.4 0.8
v 0 0.2 0.8
v 0 0.3 0.8
v 0 1.4 0.8
v 0 1.5 0.8
v 0.1 0.2 0.8
v 0.1 0.3 0.8
v 0.1 1.4 0.8
v 0.1 1.5 0.8
v 0.2 0.3 0.8
v 0.2 0.4 0.8
v 0.2 0.5 0.8
v 0.2 1.2 0.8
v 0.2 1.3 0.8
v 0.2 1.4 0.8
v 0.3 0.4 0.8
v 0.3 0.5 0.8
v 0.3 1.2 0.8
v 0.3 1.3 0.8
v 0.4 0.5 0.8
v 0.4 1.2 0.8
v 1 1.7 0.8
v 1 1.9 0.8
v -0.8 0 0.7
v -0.8 1.7 0.7
v -0.3 0.5 0.7
v -0.3 1.2 0.7
v -0.2 0.4 0.7
v -0.2 0.5 0.7
v -0.2 1.2 0.7
v -0.2 1.3 0.7
v -0.1 0.3 0.7
v -0.1 0.4 0.7
v -0.1 1.3 0.7
v -0.1 1.4 0.7
v 0 0.2 0.7
v 0 0.3 0.7
v 0 1.4 0.7
v 0 1.5 0.7
v 0.1 0.2 0.7
v 0.1 0.3 0.7
v 0.1 1.4 0.7
v 0.1 1.5 0.7
v 0.2 0.3 0.7
v 0.2 0.4 0.7
v 0.2 1.3 0.7
v 0.2 1.4 0.7
v 0.3 0.4 0.7
v 0.3 0.5 0.7
v 0.3 1.2 0.7
v 0.3 1.3 0.7
v 0.4 0.5 0.7
v 0.4 1.2 0.7
v 0.9 0 0.7
v 0.9 1.7 0.7
v 0 0 -0.1
v 0 0.8 -0.1
v 0.1 0 -0.1
v 0.1 0.8 -0.1
v -0.7 0.8 -0.9
v -0.7 1.8 -0.9
v 0.8 0.8 -0.9
v 0.8 1.8 -0.9
v -0.8 1.8 -1
v -0.8 1.9 -1
v 0.9 1.8 -1
v 0.9 1.9 -1
v -0.8 1.8 0.7
v -0.8 1.9 0.7
v 0.9 1.8 0.7
v 0.9 1.9 0.7
v -0.7 0.8 0.6
v -0.7 1.8 0.6
v 0.8 0.8 0.6
v 0.8 1.8 0.6
v 0 0 -1.19209e-07
v 0 0.8 -1.19209e-07
v 0.1 0 -1.19209e-07
v 0.1 0.8 -1.19209e-07
v -0.8 0 -1
v -0.8 1.7 -1
v 0.9 0 -1
v 0.9 1.7 -1
v -0.9 1.7 -1.1
v -0.9 1.9 -1.1
v 1 1.7 -1.1
v 1 1.9 -1.1
v -0.8 0 0.7
v 0.9 0 0.7
v 0 0 -1.19209e-07
v 0.1 0 -1.19209e-07
v 0 0 -0.1
v 0.1 0 -0.1
v -0.8 0 -1
v 0.9 0 -1
v 0 0.2 0.8
v 0.1 0.2 0.8
v 0 0.2 0.7
v 0.1 0.2 0.7
v -0.1 0.3 0.8
v 0 0.3 0.8
v 0.1 0.3 0.8
v 0.2 0.3 0.8
v -0.1 0.3 0.7
v 0 0.3 0.7
v 0.1 0.3 0.7
v 0.2 0.3 0.7
v -0.2 0.4 0.8
v -0.1 0.4 0.8
v 0.2 0.4 0.8
v 0.3 0.4 0.8
v -0.2 0.4 0.7
v -0.1 0.4 0.7
v 0.2 0.4 0.7
v 0.3 0.4 0.7
v -0.1 0.5 0.9
v 0.2 0.5 0.9
v -0.3 0.5 0.8
v -0.2 0.5 0.8
v -0.1 0.5 0.8
v 0.2 0.5 0.8
v 0.3 0.5 0.8
v 0.4 0.5 0.8
v -0.3 0.5 0.7
v -0.2 0.5 0.7
v 0.3 0.5 0.7
v 0.4 0.5 0.7
v 0 0.6 1
v 0.1 0.6 1
v 0 0.6 0.9
v 0.1 0.6 0.9
v -0.9 1.7 0.8
v 1 1.7 0.8
v -0.8 1.7 0.7
v 0.9 1.7 0.7
v -0.8 1.7 -1
v 0.9 1.7 -1
v -0.9 1.7 -1.1
v 1 1.7 -1.1
v -0.7 0.8 0.6
v 0.8 0.8 0.6
v 0 0.8 -1.19209e-07
v 0.1 0.8 -1.19209e-07
v 0 0.8 -0.1
v 0.1 0.8 -0.1
v -0.7 0.8 -0.9
v 0.8 0.8 -0.9
v 0 1.1 1
v 0.1 1.1 1
v 0 1.1 0.9
v 0.1 1.1 0.9
v -0.1 1.2 0.9
v 0.2 1.2 0.9
v -0.3 1.2 0.8
v -0.2 1.2 0.8
v -0.1 1.2 0.8
v 0.2 1.2 0.8
v 0.3 1.2 0.8
v 0.4 1.2 0.8
v -0.3 1.2 0.7
v -0.2 1.2 0.7
v 0.3 1.2 0.7
v 0.4 1.2 0.7
v -0.2 1.3 0.8
v -0.1 1.3 0.8
v 0.2 1.3 0.8
v 0.3 1.3 0.8
v -0.2 1.3 0.7
v -0.1 1.3 0.7
v 0.2 1.3 0.7
v 0.3 1.3 0.7
v -0.1 1.4 0.8
v 0 1.4 0.8
v 0.1 1.4 0.8
v 0.2 1.4 0.8
v -0.1 1.4 0.7
v 0 1.4 0.7
v 0.1 1.4 0.7
v 0.2 1.4 0.7
v 0 1.5 0.8
v 0.1 1.5 0.8
v 0 1.5 0.7
v 0.1 1.5 0.7
v -0.8 1.8 0.7
v 0.9 1.8 0.7
v -0.7 1.8 0.6
v 0.8 1.8 0.6
v -0.7 1.8 -0.9
v 0.8 1.8 -0.9
v -0.8 1.8 -1
v 0.9 1.8 -1
v -0.9 1.9 0.8
v 1 1.9 0.8
v -0.8 1.9 0.7
v 0.9 1.9 0.7
v -0.8 1.9 -1
v 0.9 1.9 -1
v -0.9 1.9 -1.1
v 1 1.9 -1.1

# faces
f 3/3/1 2/3/1 1/3/1
f 4/3/1 2/3/1 3/3/1
f 7/2/1 6/2/1 5/2/1
f 8/2/1 6/2/1 7/2/1
f 11/1/1 10/1/1 9/1/1
f 12/1/1 10/1/1 11/1/1
f 15/1/1 14/1/1 13/1/1
f 16/1/1 14/1/1 15/1/1
f 19/1/1 18/1/1 17/1/1
f 20/1/1 18/1/1 19/1/1
f 23/1/1 22/1/1 21/1/1
f 24/1/1 22/1/1 23/1/1
f 27/1/1 26/1/1 25/1/1
f 28/1/1 26/1/1 27/1/1
f 31/1/1 30/1/1 29/1/1
f 32/1/1 30/1/1 31/1/1
f 35/1/1 34/1/1 33/1/1
f 36/1/1 34/1/1 35/1/1
f 39/1/1 38/1/1 37/1/1
f 40/1/1 38/1/1 39/1/1
f 43/1/1 42/1/1 41/1/1
f 44/1/1 42/1/1 43/1/1
f 47/2/1 46/2/1 45/2/1
f 48/2/1 46/2/1 47/2/1
f 51/2/1 50/2/1 49/2/1
f 52/2/1 50/2/1 51/2/1
f 55/3/1 54/3/1 53/3/1
f 56/3/1 54/3/1 55/3/1
f 57/3/2 58/3/2 59/3/2
f 59/3/2 58/3/2 60/3/2
f 61/2/2 62/2/2 63/2/2
f 63/2/2 62/2/2 64/2/2
f 65/2/2 66/2/2 67/2/2
f 67/2/2 66/2/2 68/2/2
f 69/1/2 70/1/2 71/1/2
f 71/1/2 70/1/2 72/1/2
f 73/1/2 74/1/2 75/1/2
f 75/1/2 74/1/2 76/1/2
f 77/1/2 78/1/2 79/1/2
f 79/1/2 78/1/2 80/1/2
f 81/1/2 82/1/2 83/1/2
f 83/1/2 82/1/2 84/1/2
f 85/1/2 86/1/2 87/1/2
f 87/1/2 86/1/2 88/1/2
f 89/1/2 90/1/2 91/1/2
f 91/1/2 90/1/2 92/1/2
f 93/1/2 94/1/2 95/1/2
f 95/1/2 94/1/2 96/1/2
f 97/1/2 98/1/2 99/1/2
f 99/1/2 98/1/2 100/1/2
f 101/1/2 102/1/2 103/1/2
f 103/1/2 102/1/2 104/1/2
f 105/2/2 106/2/2 107/2/2
f 107/2/2 106/2/2 108/2/2
f 109/3/2 110/3/2 111/3/2
f 111/3/2 110/3/2 112/3/2
f 115/1/3 114/1/3 113/1/3
f 116/1/3 114/1/3 115/1/3
f 119/1/3 118/1/3 117/1/3
f 120/1/3 118/1/3 119/1/3
f 121/1/3 119/1/3 117/1/3
f 122/1/3 118/1/3 120/1/3
f 123/1/3 121/1/3 117/1/3
f 123/1/3 122/1/3 121/1/3
f 124/1/3 118/1/3 122/1/3
f 124/1/3 122/1/3 123/1/3
f 130/1/3 128/1/3 127/1/3
f 131/1/3 128/1/3 130/1/3
f 134/1/3 130/1/3 129/1/3
f 134/1/3 132/1/3 131/1/3
f 134/1/3 131/1/3 130/1/3
f 135/1/3 132/1/3 134/1/3
f 136/1/3 132/1/3 135/1/3
f 137/1/3 132/1/3 136/1/3
f 140/1/3 134/1/3 133/1/3
f 140/1/3 135/1/3 134/1/3
f 141/1/3 137/1/3 136/1/3
f 141/1/3 138/1/3 137/1/3
f 143/1/3 140/1/3 139/1/3
f 144/1/3 135/1/3 140/1/3
f 144/1/3 140/1/3 143/1/3
f 145/1/3 142/1/3 141/1/3
f 145/1/3 141/1/3 136/1/3
f 146/1/3 142/1/3 145/1/3
f 147/1/3 135/1/3 144/1/3
f 148/1/3 135/1/3 147/1/3
f 149/1/3 135/1/3 148/1/3
f 150/1/3 145/1/3 136/1/3
f 151/1/3 145/1/3 150/1/3
f 152/1/3 145/1/3 151/1/3
f 153/1/3 149/1/3 148/1/3
f 153/1/3 151/1/3 150/1/3
f 153/1/3 150/1/3 149/1/3
f 154/1/3 151/1/3 153/1/3
f 155/1/3 151/1/3 154/1/3
f 156/1/3 151/1/3 155/1/3
f 157/1/3 155/1/3 154/1/3
f 158/1/3 155/1/3 157/1/3
f 159/3/3 126/3/3 125/3/3
f 160/3/3 126/3/3 159/3/3
f 163/2/3 162/2/3 161/2/3
f 164/2/3 162/2/3 163/2/3
f 165/2/3 163/2/3 161/2/3
f 166/2/3 163/2/3 165/2/3
f 167/2/3 162/2/3 164/2/3
f 168/2/3 162/2/3 167/2/3
f 169/2/3 165/2/3 161/2/3
f 170/2/3 165/2/3 169/2/3
f 171/2/3 162/2/3 168/2/3
f 172/2/3 162/2/3 171/2/3
f 173/2/3 169/2/3 161/2/3
f 174/2/3 169/2/3 173/2/3
f 175/2/3 162/2/3 172/2/3
f 176/2/3 162/2/3 175/2/3
f 177/2/3 173/2/3 161/2/3
f 180/2/3 162/2/3 176/2/3
f 181/2/3 178/2/3 177/2/3
f 184/2/3 180/2/3 179/2/3
f 185/2/3 182/2/3 181/2/3
f 188/2/3 184/2/3 183/2/3
f 189/2/3 186/2/3 185/2/3
f 190/2/3 188/2/3 187/2/3
f 191/2/3 189/2/3 185/2/3
f 191/2/3 190/2/3 189/2/3
f 191/2/3 177/2/3 161/2/3
f 191/2/3 181/2/3 177/2/3
f 191/2/3 185/2/3 181/2/3
f 192/2/3 188/2/3 190/2/3
f 192/2/3 190/2/3 191/2/3
f 192/2/3 162/2/3 180/2/3
f 192/2/3 184/2/3 188/2/3
f 192/2/3 180/2/3 184/2/3
f 195/2/3 194/2/3 193/2/3
f 196/2/3 194/2/3 195/2/3
f 199/2/3 198/2/3 197/2/3
f 200/2/3 198/2/3 199/2/3
f 203/3/3 202/3/3 201/3/3
f 204/3/3 202/3/3 203/3/3
f 205/3/4 206/3/4 207/3/4
f 207/3/4 206/3/4 208/3/4
f 209/2/4 210/2/4 211/2/4
f 211/2/4 210/2/4 212/2/4
f 213/2/4 214/2/4 215/2/4
f 215/2/4 214/2/4 216/2/4
f 217/2/4 218/2/4 219/2/4
f 219/2/4 218/2/4 220/2/4
f 221/3/4 222/3/4 223/3/4
f 223/3/4 222/3/4 224/3/4
f 227/2/5 226/2/5 225/2/5
f 228/2/5 226/2/5 227/2/5
f 229/2/5 227/2/5 225/2/5
f 230/2/5 226/2/5 228/2/5
f 231/2/5 229/2/5 225/2/5
f 231/2/5 230/2/5 229/2/5
f 232/2/5 226/2/5 230/2/5
f 232/2/5 230/2/5 231/2/5
f 235/1/5 234/1/5 233/1/5
f 236/1/5 234/1/5 235/1/5
f 241/1/5 238/1/5 237/1/5
f 242/1/5 238/1/5 241/1/5
f 243/1/5 240/1/5 239/1/5
f 244/1/5 240/1/5 243/1/5
f 249/1/5 246/1/5 245/1/5
f 250/1/5 246/1/5 249/1/5
f 251/1/5 248/1/5 247/1/5
f 252/1/5 248/1/5 251/1/5
f 257/1/5 254/1/5 253/1/5
f 258/1/5 254/1/5 257/1/5
f 261/1/5 256/1/5 255/1/5
f 262/1/5 256/1/5 261/1/5
f 263/1/5 260/1/5 259/1/5
f 264/1/5 260/1/5 263/1/5
f 267/1/5 266/1/5 265/1/5
f 268/1/5 266/1/5 267/1/5
f 271/3/5 270/3/5 269/3/5
f 272/3/5 270/3/5 271/3/5
f 273/3/5 271/3/5 269/3/5
f 274/3/5 270/3/5 272/3/5
f 275/3/5 273/3/5 269/3/5
f 275/3/5 274/3/5 273/3/5
f 276/3/5 270/3/5 274/3/5
f 276/3/5 274/3/5 275/3/5
f 277/2/6 278/2/6 279/2/6
f 279/2/6 278/2/6 280/2/6
f 277/2/6 279/2/6 281/2/6
f 280/2/6 278/2/6 282/2/6
f 277/2/6 281/2/6 283/2/6
f 281/2/6 282/2/6 283/2/6
f 282/2/6 278/2/6 284/2/6
f 283/2/6 282/2/6 284/2/6
f 285/1/6 286/1/6 287/1/6
f 287/1/6 286/1/6 288/1/6
f 289/1/6 290/1/6 293/1/6
f 293/1/6 290/1/6 294/1/6
f 291/1/6 292/1/6 297/1/6
f 297/1/6 292/1/6 298/1/6
f 295/1/6 296/1/6 299/1/6
f 299/1/6 296/1/6 300/1/6
f 301/1/6 302/1/6 305/1/6
f 305/1/6 302/1/6 306/1/6
f 303/1/6 304/1/6 307/1/6
f 307/1/6 304/1/6 308/1/6
f 309/1/6 310/1/6 313/1/6
f 313/1/6 310/1/6 314/1/6
f 311/1/6 312/1/6 315/1/6
f 315/1/6 312/1/6 316/1/6
f 317/1/6 318/1/6 319/1/6
f 319/1/6 318/1/6 320/1/6
f 321/2/6 322/2/6 323/2/6
f 323/2/6 322/2/6 324/2/6
f 321/2/6 323/2/6 325/2/6
f 324/2/6 322/2/6 326/2/6
f 321/2/6 325/2/6 327/2/6
f 325/2/6 326/2/6 327/2/6
f 326/2/6 322/2/6 328/2/6
f 327/2/6 326/2/6 328/2/6
f 329/3/6 330/3/6 331/3/6
f 331/3/6 330/3/6 332/3/6
f 329/3/6 331/3/6 333/3/6
f 332/3/6 330/3/6 334/3/6
f 329/3/6 333/3/6 335/3/6
f 333/3/6 334/3/6 335/3/6
f 334/3/6 330/3/6 336/3/6
f 335/3/6 334/3/6 336/3/6
