# MagicaVoxel @ Ephtracy

# group
o 

# material
mtllib Flower.mtl
usemtl palette

# normals
vn -1 0 0
vn 1 0 0
vn 0 0 1
vn 0 0 -1
vn 0 -1 0
vn 0 1 0

# texcoords
vt 0.623047 0.5
vt 0.904297 0.5
vt 0.916016 0.5
vt 0.955078 0.5

# verts
v -0.4 0.7 2.98023e-08
v -0.4 0.7 -0.3
v -0.4 0.8 2.98023e-08
v -0.4 0.8 -0.3
v -0.2 0.7 0.1
v -0.2 0.7 2.98023e-08
v -0.2 0.7 -0.3
v -0.2 0.7 -0.4
v -0.2 0.8 0.1
v -0.2 0.8 2.98023e-08
v -0.2 0.8 -0.3
v -0.2 0.8 -0.4
v -0.1 0.5 2.98023e-08
v -0.1 0.5 -0.3
v -0.1 0.7 0.3
v -0.1 0.7 0.1
v -0.1 0.7 2.98023e-08
v -0.1 0.7 -0.3
v -0.1 0.7 -0.4
v -0.1 0.7 -0.6
v -0.1 0.8 0.3
v -0.1 0.8 0.1
v -0.1 0.8 2.98023e-08
v -0.1 0.8 -0.3
v -0.1 0.8 -0.4
v -0.1 0.8 -0.6
v -0.1 0.9 2.98023e-08
v -0.1 0.9 -0.3
v 0 0 -0.1
v 0 0 -0.2
v 0 0.5 -0.1
v 0 0.5 -0.2
v 0.1 0 -0.1
v 0.1 0 -0.2
v 0.1 0.5 -0.1
v 0.1 0.5 -0.2
v 0.2 0.5 2.98023e-08
v 0.2 0.5 -0.3
v 0.2 0.7 0.3
v 0.2 0.7 0.1
v 0.2 0.7 2.98023e-08
v 0.2 0.7 -0.3
v 0.2 0.7 -0.4
v 0.2 0.7 -0.6
v 0.2 0.8 0.3
v 0.2 0.8 0.1
v 0.2 0.8 2.98023e-08
v 0.2 0.8 -0.3
v 0.2 0.8 -0.4
v 0.2 0.8 -0.6
v 0.2 0.9 2.98023e-08
v 0.2 0.9 -0.3
v 0.3 0.7 0.1
v 0.3 0.7 2.98023e-08
v 0.3 0.7 -0.3
v 0.3 0.7 -0.4
v 0.3 0.8 0.1
v 0.3 0.8 2.98023e-08
v 0.3 0.8 -0.3
v 0.3 0.8 -0.4
v 0.5 0.7 2.98023e-08
v 0.5 0.7 -0.3
v 0.5 0.8 2.98023e-08
v 0.5 0.8 -0.3
v -0.1 0.7 0.3
v -0.1 0.8 0.3
v 0.2 0.7 0.3
v 0.2 0.8 0.3
v -0.2 0.7 0.1
v -0.2 0.8 0.1
v -0.1 0.7 0.1
v -0.1 0.8 0.1
v 0.2 0.7 0.1
v 0.2 0.8 0.1
v 0.3 0.7 0.1
v 0.3 0.8 0.1
v -0.4 0.7 2.98023e-08
v -0.4 0.8 2.98023e-08
v -0.2 0.7 2.98023e-08
v -0.2 0.8 2.98023e-08
v -0.1 0.5 2.98023e-08
v -0.1 0.7 2.98023e-08
v -0.1 0.8 2.98023e-08
v -0.1 0.9 2.98023e-08
v 0.2 0.5 2.98023e-08
v 0.2 0.7 2.98023e-08
v 0.2 0.8 2.98023e-08
v 0.2 0.9 2.98023e-08
v 0.3 0.7 2.98023e-08
v 0.3 0.8 2.98023e-08
v 0.5 0.7 2.98023e-08
v 0.5 0.8 2.98023e-08
v 0 0 -0.1
v 0 0.5 -0.1
v 0.1 0 -0.1
v 0.1 0.5 -0.1
v 0 0 -0.2
v 0 0.5 -0.2
v 0.1 0 -0.2
v 0.1 0.5 -0.2
v -0.4 0.7 -0.3
v -0.4 0.8 -0.3
v -0.2 0.7 -0.3
v -0.2 0.8 -0.3
v -0.1 0.5 -0.3
v -0.1 0.7 -0.3
v -0.1 0.8 -0.3
v -0.1 0.9 -0.3
v 0.2 0.5 -0.3
v 0.2 0.7 -0.3
v 0.2 0.8 -0.3
v 0.2 0.9 -0.3
v 0.3 0.7 -0.3
v 0.3 0.8 -0.3
v 0.5 0.7 -0.3
v 0.5 0.8 -0.3
v -0.2 0.7 -0.4
v -0.2 0.8 -0.4
v -0.1 0.7 -0.4
v -0.1 0.8 -0.4
v 0.2 0.7 -0.4
v 0.2 0.8 -0.4
v 0.3 0.7 -0.4
v 0.3 0.8 -0.4
v -0.1 0.7 -0.6
v -0.1 0.8 -0.6
v 0.2 0.7 -0.6
v 0.2 0.8 -0.6
v 0 0 -0.1
v 0.1 0 -0.1
v 0 0 -0.2
v 0.1 0 -0.2
v -0.1 0.5 2.98023e-08
v 0.2 0.5 2.98023e-08
v 0 0.5 -0.1
v 0.1 0.5 -0.1
v 0 0.5 -0.2
v 0.1 0.5 -0.2
v -0.1 0.5 -0.3
v 0.2 0.5 -0.3
v -0.1 0.7 0.3
v 0.2 0.7 0.3
v -0.2 0.7 0.1
v -0.1 0.7 0.1
v 0.2 0.7 0.1
v 0.3 0.7 0.1
v -0.4 0.7 2.98023e-08
v -0.2 0.7 2.98023e-08
v -0.1 0.7 2.98023e-08
v 0.2 0.7 2.98023e-08
v 0.3 0.7 2.98023e-08
v 0.5 0.7 2.98023e-08
v -0.4 0.7 -0.3
v -0.2 0.7 -0.3
v -0.1 0.7 -0.3
v 0.2 0.7 -0.3
v 0.3 0.7 -0.3
v 0.5 0.7 -0.3
v -0.2 0.7 -0.4
v -0.1 0.7 -0.4
v 0.2 0.7 -0.4
v 0.3 0.7 -0.4
v -0.1 0.7 -0.6
v 0.2 0.7 -0.6
v -0.1 0.8 0.3
v 0.2 0.8 0.3
v -0.2 0.8 0.1
v -0.1 0.8 0.1
v 0.2 0.8 0.1
v 0.3 0.8 0.1
v -0.4 0.8 2.98023e-08
v -0.2 0.8 2.98023e-08
v -0.1 0.8 2.98023e-08
v 0.2 0.8 2.98023e-08
v 0.3 0.8 2.98023e-08
v 0.5 0.8 2.98023e-08
v -0.4 0.8 -0.3
v -0.2 0.8 -0.3
v -0.1 0.8 -0.3
v 0.2 0.8 -0.3
v 0.3 0.8 -0.3
v 0.5 0.8 -0.3
v -0.2 0.8 -0.4
v -0.1 0.8 -0.4
v 0.2 0.8 -0.4
v 0.3 0.8 -0.4
v -0.1 0.8 -0.6
v 0.2 0.8 -0.6
v -0.1 0.9 2.98023e-08
v 0.2 0.9 2.98023e-08
v -0.1 0.9 -0.3
v 0.2 0.9 -0.3

# faces
f 3/2/1 2/2/1 1/2/1
f 4/2/1 2/2/1 3/2/1
f 9/2/1 6/2/1 5/2/1
f 10/2/1 6/2/1 9/2/1
f 11/2/1 8/2/1 7/2/1
f 12/2/1 8/2/1 11/2/1
f 17/1/1 14/1/1 13/1/1
f 18/1/1 14/1/1 17/1/1
f 21/2/1 16/2/1 15/2/1
f 22/2/1 16/2/1 21/2/1
f 25/2/1 20/2/1 19/2/1
f 26/2/1 20/2/1 25/2/1
f 27/3/1 24/3/1 23/3/1
f 28/3/1 24/3/1 27/3/1
f 31/4/1 30/4/1 29/4/1
f 32/4/1 30/4/1 31/4/1
f 33/4/2 34/4/2 35/4/2
f 35/4/2 34/4/2 36/4/2
f 37/1/2 38/1/2 41/1/2
f 41/1/2 38/1/2 42/1/2
f 39/2/2 40/2/2 45/2/2
f 45/2/2 40/2/2 46/2/2
f 43/2/2 44/2/2 49/2/2
f 49/2/2 44/2/2 50/2/2
f 47/3/2 48/3/2 51/3/2
f 51/3/2 48/3/2 52/3/2
f 53/2/2 54/2/2 57/2/2
f 57/2/2 54/2/2 58/2/2
f 55/2/2 56/2/2 59/2/2
f 59/2/2 56/2/2 60/2/2
f 61/2/2 62/2/2 63/2/2
f 63/2/2 62/2/2 64/2/2
f 67/2/3 66/2/3 65/2/3
f 68/2/3 66/2/3 67/2/3
f 71/2/3 70/2/3 69/2/3
f 72/2/3 70/2/3 71/2/3
f 75/2/3 74/2/3 73/2/3
f 76/2/3 74/2/3 75/2/3
f 79/2/3 78/2/3 77/2/3
f 80/2/3 78/2/3 79/2/3
f 85/1/3 82/1/3 81/1/3
f 86/1/3 82/1/3 85/1/3
f 87/3/3 84/3/3 83/3/3
f 88/3/3 84/3/3 87/3/3
f 91/2/3 90/2/3 89/2/3
f 92/2/3 90/2/3 91/2/3
f 95/4/3 94/4/3 93/4/3
f 96/4/3 94/4/3 95/4/3
f 97/4/4 98/4/4 99/4/4
f 99/4/4 98/4/4 100/4/4
f 101/2/4 102/2/4 103/2/4
f 103/2/4 102/2/4 104/2/4
f 105/1/4 106/1/4 109/1/4
f 109/1/4 106/1/4 110/1/4
f 107/3/4 108/3/4 111/3/4
f 111/3/4 108/3/4 112/3/4
f 113/2/4 114/2/4 115/2/4
f 115/2/4 114/2/4 116/2/4
f 117/2/4 118/2/4 119/2/4
f 119/2/4 118/2/4 120/2/4
f 121/2/4 122/2/4 123/2/4
f 123/2/4 122/2/4 124/2/4
f 125/2/4 126/2/4 127/2/4
f 127/2/4 126/2/4 128/2/4
f 131/4/5 130/4/5 129/4/5
f 132/4/5 130/4/5 131/4/5
f 135/1/5 134/1/5 133/1/5
f 136/1/5 134/1/5 135/1/5
f 137/1/5 135/1/5 133/1/5
f 138/1/5 134/1/5 136/1/5
f 139/1/5 137/1/5 133/1/5
f 139/1/5 138/1/5 137/1/5
f 140/1/5 134/1/5 138/1/5
f 140/1/5 138/1/5 139/1/5
f 144/2/5 142/2/5 141/2/5
f 145/2/5 142/2/5 144/2/5
f 148/2/5 144/2/5 143/2/5
f 148/2/5 146/2/5 145/2/5
f 148/2/5 145/2/5 144/2/5
f 149/2/5 146/2/5 148/2/5
f 150/2/5 146/2/5 149/2/5
f 151/2/5 146/2/5 150/2/5
f 153/2/5 148/2/5 147/2/5
f 153/2/5 149/2/5 148/2/5
f 154/2/5 149/2/5 153/2/5
f 155/2/5 149/2/5 154/2/5
f 156/2/5 152/2/5 151/2/5
f 156/2/5 151/2/5 150/2/5
f 157/2/5 152/2/5 156/2/5
f 158/2/5 152/2/5 157/2/5
f 159/2/5 155/2/5 154/2/5
f 159/2/5 157/2/5 156/2/5
f 159/2/5 156/2/5 155/2/5
f 160/2/5 157/2/5 159/2/5
f 161/2/5 157/2/5 160/2/5
f 162/2/5 157/2/5 161/2/5
f 163/2/5 161/2/5 160/2/5
f 164/2/5 161/2/5 163/2/5
f 165/2/6 166/2/6 168/2/6
f 168/2/6 166/2/6 169/2/6
f 167/2/6 168/2/6 172/2/6
f 169/2/6 170/2/6 172/2/6
f 168/2/6 169/2/6 172/2/6
f 172/2/6 170/2/6 173/2/6
f 173/2/6 170/2/6 174/2/6
f 174/2/6 170/2/6 175/2/6
f 171/2/6 172/2/6 177/2/6
f 172/2/6 173/2/6 177/2/6
f 177/2/6 173/2/6 178/2/6
f 178/2/6 173/2/6 179/2/6
f 175/2/6 176/2/6 180/2/6
f 174/2/6 175/2/6 180/2/6
f 180/2/6 176/2/6 181/2/6
f 181/2/6 176/2/6 182/2/6
f 178/2/6 179/2/6 183/2/6
f 180/2/6 181/2/6 183/2/6
f 179/2/6 180/2/6 183/2/6
f 183/2/6 181/2/6 184/2/6
f 184/2/6 181/2/6 185/2/6
f 185/2/6 181/2/6 186/2/6
f 184/2/6 185/2/6 187/2/6
f 187/2/6 185/2/6 188/2/6
f 189/3/6 190/3/6 191/3/6
f 191/3/6 190/3/6 192/3/6
