# MagicaVoxel @ Ephtracy

# group
o 

# material
mtllib Green.mtl
usemtl palette

# normals
vn -1 0 0
vn 1 0 0
vn 0 0 1
vn 0 0 -1
vn 0 -1 0
vn 0 1 0

# texcoords
vt 0.150391 0.5
vt 0.591797 0.5
vt 0.623047 0.5

# verts
v -0.4 0.5 0.1
v -0.4 0.5 -0.3
v -0.4 0.8 0.1
v -0.4 0.8 -0.3
v -0.3 0.4 0.2
v -0.3 0.4 -0.3
v -0.3 0.5 0.1
v -0.3 0.5 -0.3
v -0.3 0.5 -0.4
v -0.3 0.8 0.1
v -0.3 0.8 -0.3
v -0.3 0.8 -0.4
v -0.3 0.9 0.2
v -0.3 0.9 0.1
v -0.3 1 0.1
v -0.3 1 -0.3
v -0.2 0.3 0.2
v -0.2 0.3 -0.3
v -0.2 0.4 0.3
v -0.2 0.4 0.2
v -0.2 0.4 -0.3
v -0.2 0.4 -0.5
v -0.2 0.5 -0.3
v -0.2 0.5 -0.4
v -0.2 0.8 -0.3
v -0.2 0.8 -0.4
v -0.2 0.9 0.3
v -0.2 0.9 0.2
v -0.2 0.9 0.1
v -0.2 0.9 -0.4
v -0.2 0.9 -0.5
v -0.2 1 0.1
v -0.2 1 -0.3
v -0.2 1 -0.4
v -0.2 1.1 0.2
v -0.2 1.1 -0.3
v -0.2 1.4 -0.2
v -0.2 1.4 -0.3
v -0.2 1.5 -0.2
v -0.2 1.5 -0.3
v -0.1 0.2 0.1
v -0.1 0.2 -0.3
v -0.1 0.3 0.1
v -0.1 0.3 -0.3
v -0.1 0.3 -0.4
v -0.1 0.4 -0.3
v -0.1 0.4 -0.4
v -0.1 0.5 0.4
v -0.1 0.5 0.3
v -0.1 0.5 -0.5
v -0.1 0.5 -0.6
v -0.1 0.8 0.4
v -0.1 0.8 0.3
v -0.1 0.8 -0.5
v -0.1 0.8 -0.6
v -0.1 0.9 0.3
v -0.1 0.9 0.2
v -0.1 0.9 -0.4
v -0.1 0.9 -0.5
v -0.1 1 0.3
v -0.1 1 0.2
v -0.1 1 -0.3
v -0.1 1 -0.4
v -0.1 1 -0.5
v -0.1 1.1 0.1
v -0.1 1.1 -0.3
v -0.1 1.1 -0.4
v -0.1 1.2 0.1
v -0.1 1.2 -0.3
v -0.1 1.3 0
v -0.1 1.3 -0.2
v -0.1 1.4 -0.2
v -0.1 1.5 0
v -0.1 1.5 -0.2
v 0 1.2 0
v 0 1.2 -0.2
v 0 1.3 0
v 0 1.3 -0.2
v 0 1.4 -0.2
v 0 1.4 -0.3
v 0 1.5 -0.2
v 0 1.5 -0.3
v 0.1 1.4 0
v 0.1 1.4 -0.1
v 0.1 1.5 0
v 0.1 1.5 -0.1
v 0.2 1.4 -0.2
v 0.2 1.4 -0.3
v 0.2 1.5 -0.2
v 0.2 1.5 -0.3
v -0.1 1.4 -0.2
v -0.1 1.4 -0.3
v -0.1 1.5 -0.2
v -0.1 1.5 -0.3
v 0 1.4 0
v 0 1.4 -0.1
v 0 1.5 0
v 0 1.5 -0.1
v 0.1 1.4 -0.2
v 0.1 1.4 -0.3
v 0.1 1.5 -0.2
v 0.1 1.5 -0.3
v 0.2 1.2 0
v 0.2 1.2 -0.1
v 0.2 1.2 -0.2
v 0.2 1.3 0
v 0.2 1.3 -0.1
v 0.2 1.3 -0.2
v 0.2 1.5 0
v 0.2 1.5 -0.1
v 0.3 0.2 0.1
v 0.3 0.2 -0.3
v 0.3 0.3 0.2
v 0.3 0.3 0.1
v 0.3 0.3 -0.3
v 0.3 0.3 -0.4
v 0.3 0.4 0.3
v 0.3 0.4 0.2
v 0.3 0.4 0.1
v 0.3 0.4 -0.3
v 0.3 0.4 -0.4
v 0.3 0.4 -0.5
v 0.3 0.5 0.4
v 0.3 0.5 0.3
v 0.3 0.5 0.2
v 0.3 0.5 -0.4
v 0.3 0.5 -0.5
v 0.3 0.5 -0.6
v 0.3 0.8 0.4
v 0.3 0.8 0.3
v 0.3 0.8 0.2
v 0.3 0.8 -0.4
v 0.3 0.8 -0.5
v 0.3 0.8 -0.6
v 0.3 0.9 -0.3
v 0.3 0.9 -0.4
v 0.3 1 0.3
v 0.3 1 0.2
v 0.3 1 0.1
v 0.3 1 -0.4
v 0.3 1 -0.5
v 0.3 1.1 0.2
v 0.3 1.1 0.1
v 0.3 1.1 -0.3
v 0.3 1.1 -0.4
v 0.3 1.2 0.1
v 0.3 1.2 -0.3
v 0.3 1.4 -0.1
v 0.3 1.4 -0.2
v 0.3 1.4 -0.3
v 0.3 1.5 -0.1
v 0.3 1.5 -0.3
v 0.4 0.3 0.1
v 0.4 0.3 -0.3
v 0.4 0.4 0.1
v 0.4 0.4 -0.3
v 0.4 0.4 -0.4
v 0.4 0.5 0.3
v 0.4 0.5 0.2
v 0.4 0.5 -0.3
v 0.4 0.5 -0.4
v 0.4 0.5 -0.5
v 0.4 0.8 0.3
v 0.4 0.8 0.2
v 0.4 0.8 -0.3
v 0.4 0.8 -0.4
v 0.4 0.8 -0.5
v 0.4 0.9 0.2
v 0.4 0.9 0.1
v 0.4 0.9 -0.3
v 0.4 0.9 -0.4
v 0.4 1 0.2
v 0.4 1 0.1
v 0.4 1 -0.3
v 0.4 1.1 0.1
v 0.4 1.1 -0.3
v 0.4 1.3 -0.1
v 0.4 1.3 -0.2
v 0.4 1.4 -0.1
v 0.4 1.4 -0.2
v 0.5 0.4 0.2
v 0.5 0.4 -0.3
v 0.5 0.5 0.1
v 0.5 0.5 -0.3
v 0.5 0.5 -0.4
v 0.5 0.8 0.1
v 0.5 0.8 -0.3
v 0.5 0.8 -0.4
v 0.5 0.9 0.2
v 0.5 0.9 0.1
v 0.5 1 0.1
v 0.5 1 -0.3
v 0.6 0.5 0.1
v 0.6 0.5 -0.3
v 0.6 0.8 0.1
v 0.6 0.8 -0.3
v -0.1 0.5 0.4
v -0.1 0.8 0.4
v 0.3 0.5 0.4
v 0.3 0.8 0.4
v -0.2 0.4 0.3
v -0.2 0.9 0.3
v -0.1 0.5 0.3
v -0.1 0.8 0.3
v -0.1 0.9 0.3
v -0.1 1 0.3
v 0.3 0.4 0.3
v 0.3 0.5 0.3
v 0.3 0.8 0.3
v 0.3 1 0.3
v 0.4 0.5 0.3
v 0.4 0.8 0.3
v -0.3 0.4 0.2
v -0.3 0.9 0.2
v -0.2 0.3 0.2
v -0.2 0.4 0.2
v -0.2 0.9 0.2
v -0.2 1.1 0.2
v -0.1 0.9 0.2
v -0.1 1 0.2
v 0.3 0.3 0.2
v 0.3 0.4 0.2
v 0.3 0.5 0.2
v 0.3 0.8 0.2
v 0.3 1 0.2
v 0.3 1.1 0.2
v 0.4 0.5 0.2
v 0.4 0.8 0.2
v 0.4 0.9 0.2
v 0.4 1 0.2
v 0.5 0.4 0.2
v 0.5 0.9 0.2
v -0.4 0.5 0.1
v -0.4 0.8 0.1
v -0.3 0.5 0.1
v -0.3 0.8 0.1
v -0.3 0.9 0.1
v -0.3 1 0.1
v -0.2 0.9 0.1
v -0.2 1 0.1
v -0.1 0.2 0.1
v -0.1 0.3 0.1
v -0.1 1.1 0.1
v -0.1 1.2 0.1
v 0.3 0.2 0.1
v 0.3 0.3 0.1
v 0.3 0.4 0.1
v 0.3 1 0.1
v 0.3 1.1 0.1
v 0.3 1.2 0.1
v 0.4 0.3 0.1
v 0.4 0.4 0.1
v 0.4 0.9 0.1
v 0.4 1 0.1
v 0.4 1.1 0.1
v 0.5 0.5 0.1
v 0.5 0.8 0.1
v 0.5 0.9 0.1
v 0.5 1 0.1
v 0.6 0.5 0.1
v 0.6 0.8 0.1
v -0.1 1.3 0
v -0.1 1.5 0
v 0 1.2 0
v 0 1.3 0
v 0 1.4 0
v 0 1.5 0
v 0.1 1.2 0
v 0.1 1.3 0
v 0.1 1.4 0
v 0.1 1.5 0
v 0.2 1.2 0
v 0.2 1.3 0
v 0.2 1.5 0
v 0 1.4 -0.1
v 0 1.5 -0.1
v 0.1 1.4 -0.1
v 0.1 1.5 -0.1
v 0.2 1.3 -0.1
v 0.2 1.5 -0.1
v 0.3 1.4 -0.1
v 0.3 1.5 -0.1
v 0.4 1.3 -0.1
v 0.4 1.4 -0.1
v -0.2 1.4 -0.2
v -0.2 1.5 -0.2
v -0.1 1.4 -0.2
v -0.1 1.5 -0.2
v -0.1 1.3 -0.2
v -0.1 1.4 -0.2
v -0.1 1.5 -0.2
v 0 1.2 -0.2
v 0 1.3 -0.2
v 0 1.4 -0.2
v 0 1.5 -0.2
v 0.1 1.4 -0.2
v 0.1 1.5 -0.2
v 0.2 1.2 -0.2
v 0.2 1.3 -0.2
v 0.2 1.4 -0.2
v 0.2 1.5 -0.2
v 0.3 1.4 -0.2
v 0.4 1.3 -0.2
v 0.4 1.4 -0.2
v -0.4 0.5 -0.3
v -0.4 0.8 -0.3
v -0.3 0.4 -0.3
v -0.3 0.5 -0.3
v -0.3 0.8 -0.3
v -0.3 1 -0.3
v -0.2 0.3 -0.3
v -0.2 0.4 -0.3
v -0.2 0.5 -0.3
v -0.2 0.8 -0.3
v -0.2 1 -0.3
v -0.2 1.1 -0.3
v -0.2 1.4 -0.3
v -0.2 1.5 -0.3
v -0.1 0.2 -0.3
v -0.1 0.3 -0.3
v -0.1 0.4 -0.3
v -0.1 1 -0.3
v -0.1 1.1 -0.3
v -0.1 1.2 -0.3
v -0.1 1.4 -0.3
v -0.1 1.5 -0.3
v 0 1.4 -0.3
v 0 1.5 -0.3
v 0.1 1.4 -0.3
v 0.1 1.5 -0.3
v 0.2 1.4 -0.3
v 0.2 1.5 -0.3
v 0.3 0.2 -0.3
v 0.3 0.3 -0.3
v 0.3 0.4 -0.3
v 0.3 0.9 -0.3
v 0.3 1.1 -0.3
v 0.3 1.2 -0.3
v 0.3 1.4 -0.3
v 0.3 1.5 -0.3
v 0.4 0.3 -0.3
v 0.4 0.4 -0.3
v 0.4 0.5 -0.3
v 0.4 0.8 -0.3
v 0.4 0.9 -0.3
v 0.4 1 -0.3
v 0.4 1.1 -0.3
v 0.5 0.4 -0.3
v 0.5 0.5 -0.3
v 0.5 0.8 -0.3
v 0.5 1 -0.3
v 0.6 0.5 -0.3
v 0.6 0.8 -0.3
v -0.3 0.5 -0.4
v -0.3 0.8 -0.4
v -0.2 0.5 -0.4
v -0.2 0.8 -0.4
v -0.2 0.9 -0.4
v -0.2 1 -0.4
v -0.1 0.3 -0.4
v -0.1 0.4 -0.4
v -0.1 0.9 -0.4
v -0.1 1 -0.4
v -0.1 1.1 -0.4
v 0.3 0.3 -0.4
v 0.3 0.4 -0.4
v 0.3 0.5 -0.4
v 0.3 0.8 -0.4
v 0.3 0.9 -0.4
v 0.3 1 -0.4
v 0.3 1.1 -0.4
v 0.4 0.4 -0.4
v 0.4 0.5 -0.4
v 0.4 0.8 -0.4
v 0.4 0.9 -0.4
v 0.5 0.5 -0.4
v 0.5 0.8 -0.4
v -0.2 0.4 -0.5
v -0.2 0.9 -0.5
v -0.1 0.5 -0.5
v -0.1 0.8 -0.5
v -0.1 0.9 -0.5
v -0.1 1 -0.5
v 0.3 0.4 -0.5
v 0.3 0.5 -0.5
v 0.3 0.8 -0.5
v 0.3 1 -0.5
v 0.4 0.5 -0.5
v 0.4 0.8 -0.5
v -0.1 0.5 -0.6
v -0.1 0.8 -0.6
v 0.3 0.5 -0.6
v 0.3 0.8 -0.6
v -0.1 0.2 0.1
v 0.3 0.2 0.1
v -0.1 0.2 -0.3
v 0.3 0.2 -0.3
v -0.2 0.3 0.2
v 0.3 0.3 0.2
v -0.1 0.3 0.1
v 0.3 0.3 0.1
v 0.4 0.3 0.1
v -0.2 0.3 -0.3
v -0.1 0.3 -0.3
v 0.3 0.3 -0.3
v 0.4 0.3 -0.3
v -0.1 0.3 -0.4
v 0.3 0.3 -0.4
v -0.2 0.4 0.3
v 0.3 0.4 0.3
v -0.3 0.4 0.2
v -0.2 0.4 0.2
v 0.3 0.4 0.2
v 0.5 0.4 0.2
v 0.3 0.4 0.1
v 0.4 0.4 0.1
v -0.3 0.4 -0.3
v -0.2 0.4 -0.3
v -0.1 0.4 -0.3
v 0.3 0.4 -0.3
v 0.4 0.4 -0.3
v 0.5 0.4 -0.3
v -0.1 0.4 -0.4
v 0.3 0.4 -0.4
v 0.4 0.4 -0.4
v -0.2 0.4 -0.5
v 0.3 0.4 -0.5
v -0.1 0.5 0.4
v 0.3 0.5 0.4
v -0.1 0.5 0.3
v 0.3 0.5 0.3
v 0.4 0.5 0.3
v 0.3 0.5 0.2
v 0.4 0.5 0.2
v -0.4 0.5 0.1
v -0.3 0.5 0.1
v 0.5 0.5 0.1
v 0.6 0.5 0.1
v -0.4 0.5 -0.3
v -0.3 0.5 -0.3
v -0.2 0.5 -0.3
v 0.4 0.5 -0.3
v 0.5 0.5 -0.3
v 0.6 0.5 -0.3
v -0.3 0.5 -0.4
v -0.2 0.5 -0.4
v 0.3 0.5 -0.4
v 0.4 0.5 -0.4
v 0.5 0.5 -0.4
v -0.1 0.5 -0.5
v 0.3 0.5 -0.5
v 0.4 0.5 -0.5
v -0.1 0.5 -0.6
v 0.3 0.5 -0.6
v -0.1 1.3 0
v 0 1.3 0
v 0.2 1.3 -0.1
v 0.4 1.3 -0.1
v -0.1 1.3 -0.2
v 0 1.3 -0.2
v 0.2 1.3 -0.2
v 0.4 1.3 -0.2
v -0.2 1.4 -0.2
v -0.1 1.4 -0.2
v 0 1.4 -0.2
v 0.1 1.4 -0.2
v 0.2 1.4 -0.2
v 0.3 1.4 -0.2
v -0.2 1.4 -0.3
v -0.1 1.4 -0.3
v 0 1.4 -0.3
v 0.1 1.4 -0.3
v 0.2 1.4 -0.3
v 0.3 1.4 -0.3
v -0.1 0.8 0.4
v 0.3 0.8 0.4
v -0.1 0.8 0.3
v 0.3 0.8 0.3
v 0.4 0.8 0.3
v 0.3 0.8 0.2
v 0.4 0.8 0.2
v -0.4 0.8 0.1
v -0.3 0.8 0.1
v 0.5 0.8 0.1
v 0.6 0.8 0.1
v -0.4 0.8 -0.3
v -0.3 0.8 -0.3
v -0.2 0.8 -0.3
v 0.4 0.8 -0.3
v 0.5 0.8 -0.3
v 0.6 0.8 -0.3
v -0.3 0.8 -0.4
v -0.2 0.8 -0.4
v 0.3 0.8 -0.4
v 0.4 0.8 -0.4
v 0.5 0.8 -0.4
v -0.1 0.8 -0.5
v 0.3 0.8 -0.5
v 0.4 0.8 -0.5
v -0.1 0.8 -0.6
v 0.3 0.8 -0.6
v -0.2 0.9 0.3
v -0.1 0.9 0.3
v -0.3 0.9 0.2
v -0.2 0.9 0.2
v -0.1 0.9 0.2
v 0.4 0.9 0.2
v 0.5 0.9 0.2
v -0.3 0.9 0.1
v -0.2 0.9 0.1
v 0.4 0.9 0.1
v 0.5 0.9 0.1
v 0.3 0.9 -0.3
v 0.4 0.9 -0.3
v -0.2 0.9 -0.4
v -0.1 0.9 -0.4
v 0.3 0.9 -0.4
v 0.4 0.9 -0.4
v -0.2 0.9 -0.5
v -0.1 0.9 -0.5
v -0.1 1 0.3
v 0.3 1 0.3
v -0.1 1 0.2
v 0.3 1 0.2
v 0.4 1 0.2
v -0.3 1 0.1
v -0.2 1 0.1
v 0.3 1 0.1
v 0.4 1 0.1
v 0.5 1 0.1
v -0.3 1 -0.3
v -0.2 1 -0.3
v -0.1 1 -0.3
v 0.4 1 -0.3
v 0.5 1 -0.3
v -0.2 1 -0.4
v -0.1 1 -0.4
v 0.3 1 -0.4
v -0.1 1 -0.5
v 0.3 1 -0.5
v -0.2 1.1 0.2
v 0.3 1.1 0.2
v -0.1 1.1 0.1
v 0.3 1.1 0.1
v 0.4 1.1 0.1
v -0.2 1.1 -0.3
v -0.1 1.1 -0.3
v 0.3 1.1 -0.3
v 0.4 1.1 -0.3
v -0.1 1.1 -0.4
v 0.3 1.1 -0.4
v -0.1 1.2 0.1
v 0.3 1.2 0.1
v 0 1.2 0
v 0.1 1.2 0
v 0.2 1.2 0
v 0.2 1.2 -0.1
v 0 1.2 -0.2
v 0.2 1.2 -0.2
v -0.1 1.2 -0.3
v 0.3 1.2 -0.3
v 0 1.4 0
v 0.1 1.4 0
v 0 1.4 -0.1
v 0.1 1.4 -0.1
v 0.3 1.4 -0.1
v 0.4 1.4 -0.1
v 0.3 1.4 -0.2
v 0.4 1.4 -0.2
v -0.1 1.5 0
v 0 1.5 0
v 0.1 1.5 0
v 0.2 1.5 0
v 0 1.5 -0.1
v 0.1 1.5 -0.1
v 0.2 1.5 -0.1
v 0.3 1.5 -0.1
v -0.2 1.5 -0.2
v -0.1 1.5 -0.2
v 0 1.5 -0.2
v 0.1 1.5 -0.2
v 0.2 1.5 -0.2
v -0.2 1.5 -0.3
v -0.1 1.5 -0.3
v 0 1.5 -0.3
v 0.1 1.5 -0.3
v 0.2 1.5 -0.3
v 0.3 1.5 -0.3

# faces
f 3/3/1 2/3/1 1/3/1
f 4/3/1 2/3/1 3/3/1
f 7/3/1 6/3/1 5/3/1
f 8/3/1 6/3/1 7/3/1
f 10/3/1 7/3/1 5/3/1
f 11/3/1 9/3/1 8/3/1
f 12/3/1 9/3/1 11/3/1
f 13/3/1 10/3/1 5/3/1
f 13/3/1 11/3/1 10/3/1
f 14/3/1 11/3/1 13/3/1
f 15/3/1 11/3/1 14/3/1
f 16/3/1 11/3/1 15/3/1
f 20/3/1 18/3/1 17/3/1
f 21/3/1 18/3/1 20/3/1
f 23/3/1 22/3/1 21/3/1
f 24/3/1 22/3/1 23/3/1
f 26/3/1 22/3/1 24/3/1
f 27/3/1 20/3/1 19/3/1
f 28/3/1 20/3/1 27/3/1
f 30/3/1 26/3/1 25/3/1
f 30/3/1 22/3/1 26/3/1
f 31/3/1 22/3/1 30/3/1
f 32/3/1 29/3/1 28/3/1
f 33/3/1 30/3/1 25/3/1
f 34/3/1 30/3/1 33/3/1
f 35/3/1 32/3/1 28/3/1
f 35/3/1 33/3/1 32/3/1
f 36/3/1 33/3/1 35/3/1
f 39/2/1 38/2/1 37/2/1
f 40/2/1 38/2/1 39/2/1
f 43/3/1 42/3/1 41/3/1
f 44/3/1 42/3/1 43/3/1
f 46/3/1 45/3/1 44/3/1
f 47/3/1 45/3/1 46/3/1
f 52/3/1 49/3/1 48/3/1
f 53/3/1 49/3/1 52/3/1
f 54/3/1 51/3/1 50/3/1
f 55/3/1 51/3/1 54/3/1
f 60/3/1 57/3/1 56/3/1
f 61/3/1 57/3/1 60/3/1
f 63/3/1 59/3/1 58/3/1
f 64/3/1 59/3/1 63/3/1
f 66/3/1 63/3/1 62/3/1
f 67/3/1 63/3/1 66/3/1
f 68/3/1 66/3/1 65/3/1
f 69/3/1 66/3/1 68/3/1
f 72/2/1 71/2/1 70/2/1
f 73/2/1 72/2/1 70/2/1
f 74/2/1 72/2/1 73/2/1
f 77/2/1 76/2/1 75/2/1
f 78/2/1 76/2/1 77/2/1
f 81/2/1 80/2/1 79/2/1
f 82/2/1 80/2/1 81/2/1
f 85/2/1 84/2/1 83/2/1
f 86/2/1 84/2/1 85/2/1
f 89/2/1 88/2/1 87/2/1
f 90/2/1 88/2/1 89/2/1
f 91/2/2 92/2/2 93/2/2
f 93/2/2 92/2/2 94/2/2
f 95/2/2 96/2/2 97/2/2
f 97/2/2 96/2/2 98/2/2
f 99/2/2 100/2/2 101/2/2
f 101/2/2 100/2/2 102/2/2
f 103/3/2 104/3/2 106/3/2
f 104/2/2 105/2/2 107/2/2
f 106/3/2 104/3/2 107/3/2
f 107/2/2 105/2/2 108/2/2
f 106/2/2 107/2/2 109/2/2
f 109/2/2 107/2/2 110/2/2
f 111/3/2 112/3/2 114/3/2
f 114/3/2 112/3/2 115/3/2
f 113/3/2 114/3/2 118/3/2
f 118/3/2 114/3/2 119/3/2
f 115/3/2 116/3/2 120/3/2
f 120/3/2 116/3/2 121/3/2
f 117/3/2 118/3/2 124/3/2
f 124/3/2 118/3/2 125/3/2
f 121/3/2 122/3/2 126/3/2
f 126/3/2 122/3/2 127/3/2
f 123/3/2 124/3/2 129/3/2
f 129/3/2 124/3/2 130/3/2
f 127/3/2 128/3/2 133/3/2
f 133/3/2 128/3/2 134/3/2
f 132/3/2 133/3/2 136/3/2
f 130/3/2 131/3/2 137/3/2
f 137/3/2 131/3/2 138/3/2
f 135/3/2 136/3/2 140/3/2
f 136/3/2 133/3/2 140/3/2
f 140/3/2 133/3/2 141/3/2
f 138/3/2 139/3/2 142/3/2
f 142/3/2 139/3/2 143/3/2
f 135/3/2 140/3/2 144/3/2
f 144/3/2 140/3/2 145/3/2
f 143/3/2 144/3/2 146/3/2
f 146/3/2 144/3/2 147/3/2
f 148/2/2 149/2/2 151/2/2
f 149/2/2 150/2/2 151/2/2
f 151/2/2 150/2/2 152/2/2
f 153/3/2 154/3/2 155/3/2
f 155/3/2 154/3/2 156/3/2
f 156/3/2 157/3/2 160/3/2
f 160/3/2 157/3/2 161/3/2
f 158/3/2 159/3/2 163/3/2
f 163/3/2 159/3/2 164/3/2
f 161/3/2 162/3/2 166/3/2
f 166/3/2 162/3/2 167/3/2
f 165/3/2 166/3/2 170/3/2
f 170/3/2 166/3/2 171/3/2
f 168/3/2 169/3/2 172/3/2
f 172/3/2 169/3/2 173/3/2
f 173/3/2 174/3/2 175/3/2
f 175/3/2 174/3/2 176/3/2
f 177/2/2 178/2/2 179/2/2
f 179/2/2 178/2/2 180/2/2
f 181/3/2 182/3/2 183/3/2
f 183/3/2 182/3/2 184/3/2
f 181/3/2 183/3/2 186/3/2
f 184/3/2 185/3/2 187/3/2
f 187/3/2 185/3/2 188/3/2
f 181/3/2 186/3/2 189/3/2
f 186/3/2 187/3/2 189/3/2
f 189/3/2 187/3/2 190/3/2
f 190/3/2 187/3/2 191/3/2
f 191/3/2 187/3/2 192/3/2
f 193/3/2 194/3/2 195/3/2
f 195/3/2 194/3/2 196/3/2
f 199/3/3 198/3/3 197/3/3
f 200/3/3 198/3/3 199/3/3
f 203/3/3 202/3/3 201/3/3
f 204/3/3 202/3/3 203/3/3
f 205/3/3 202/3/3 204/3/3
f 207/3/3 203/3/3 201/3/3
f 208/3/3 203/3/3 207/3/3
f 209/3/3 206/3/3 205/3/3
f 209/3/3 205/3/3 204/3/3
f 210/3/3 206/3/3 209/3/3
f 211/3/3 209/3/3 208/3/3
f 212/3/3 209/3/3 211/3/3
f 216/3/3 214/3/3 213/3/3
f 217/3/3 214/3/3 216/3/3
f 219/3/3 218/3/3 217/3/3
f 220/3/3 218/3/3 219/3/3
f 221/3/3 216/3/3 215/3/3
f 222/3/3 216/3/3 221/3/3
f 225/3/3 218/3/3 220/3/3
f 226/3/3 218/3/3 225/3/3
f 227/3/3 223/3/3 222/3/3
f 228/3/3 225/3/3 224/3/3
f 229/3/3 225/3/3 228/3/3
f 230/3/3 225/3/3 229/3/3
f 231/3/3 227/3/3 222/3/3
f 231/3/3 228/3/3 227/3/3
f 231/3/3 229/3/3 228/3/3
f 232/3/3 229/3/3 231/3/3
f 235/3/3 234/3/3 233/3/3
f 236/3/3 234/3/3 235/3/3
f 239/3/3 238/3/3 237/3/3
f 240/3/3 238/3/3 239/3/3
f 245/3/3 242/3/3 241/3/3
f 246/3/3 242/3/3 245/3/3
f 249/3/3 244/3/3 243/3/3
f 250/3/3 244/3/3 249/3/3
f 251/3/3 247/3/3 246/3/3
f 252/3/3 247/3/3 251/3/3
f 254/3/3 249/3/3 248/3/3
f 255/3/3 249/3/3 254/3/3
f 258/3/3 254/3/3 253/3/3
f 259/3/3 254/3/3 258/3/3
f 260/3/3 257/3/3 256/3/3
f 261/3/3 257/3/3 260/3/3
f 265/2/3 263/2/3 262/2/3
f 266/2/3 263/2/3 265/2/3
f 267/2/3 263/2/3 266/2/3
f 268/2/3 265/2/3 264/2/3
f 268/2/3 266/2/3 265/2/3
f 269/2/3 266/2/3 268/2/3
f 270/2/3 266/2/3 269/2/3
f 272/3/3 269/3/3 268/3/3
f 273/2/3 271/2/3 270/2/3
f 273/3/3 269/3/3 272/3/3
f 273/2/3 270/2/3 269/2/3
f 274/2/3 271/2/3 273/2/3
f 277/2/3 276/2/3 275/2/3
f 278/2/3 276/2/3 277/2/3
f 281/2/3 280/2/3 279/2/3
f 282/2/3 280/2/3 281/2/3
f 283/2/3 281/2/3 279/2/3
f 284/2/3 281/2/3 283/2/3
f 287/2/3 286/2/3 285/2/3
f 288/2/3 286/2/3 287/2/3
f 289/2/4 290/2/4 293/2/4
f 290/2/4 291/2/4 293/2/4
f 293/2/4 291/2/4 294/2/4
f 294/2/4 291/2/4 295/2/4
f 292/2/4 293/2/4 296/2/4
f 293/2/4 294/2/4 296/2/4
f 292/2/4 296/2/4 298/2/4
f 296/2/4 297/2/4 298/2/4
f 298/2/4 297/2/4 299/2/4
f 299/2/4 297/2/4 300/2/4
f 300/2/4 297/2/4 301/2/4
f 299/2/4 300/2/4 302/2/4
f 299/2/4 302/2/4 303/2/4
f 303/2/4 302/2/4 304/2/4
f 305/3/4 306/3/4 308/3/4
f 308/3/4 306/3/4 309/3/4
f 307/3/4 308/3/4 312/3/4
f 312/3/4 308/3/4 313/3/4
f 309/3/4 310/3/4 314/3/4
f 314/3/4 310/3/4 315/3/4
f 311/3/4 312/3/4 320/3/4
f 320/3/4 312/3/4 321/3/4
f 315/3/4 316/3/4 322/3/4
f 322/3/4 316/3/4 323/3/4
f 317/2/4 318/2/4 325/2/4
f 325/2/4 318/2/4 326/2/4
f 327/2/4 328/2/4 329/2/4
f 329/2/4 328/2/4 330/2/4
f 319/3/4 320/3/4 333/3/4
f 333/3/4 320/3/4 334/3/4
f 323/3/4 324/3/4 337/3/4
f 337/3/4 324/3/4 338/3/4
f 331/2/4 332/2/4 339/2/4
f 339/2/4 332/2/4 340/2/4
f 334/3/4 335/3/4 341/3/4
f 341/3/4 335/3/4 342/3/4
f 336/3/4 337/3/4 345/3/4
f 345/3/4 337/3/4 346/3/4
f 346/3/4 337/3/4 347/3/4
f 342/3/4 343/3/4 348/3/4
f 348/3/4 343/3/4 349/3/4
f 345/3/4 346/3/4 350/3/4
f 344/3/4 345/3/4 350/3/4
f 350/3/4 346/3/4 351/3/4
f 349/3/4 350/3/4 352/3/4
f 352/3/4 350/3/4 353/3/4
f 354/3/4 355/3/4 356/3/4
f 356/3/4 355/3/4 357/3/4
f 358/3/4 359/3/4 362/3/4
f 362/3/4 359/3/4 363/3/4
f 360/3/4 361/3/4 365/3/4
f 365/3/4 361/3/4 366/3/4
f 363/3/4 364/3/4 370/3/4
f 370/3/4 364/3/4 371/3/4
f 366/3/4 367/3/4 372/3/4
f 372/3/4 367/3/4 373/3/4
f 368/3/4 369/3/4 374/3/4
f 374/3/4 369/3/4 375/3/4
f 373/3/4 374/3/4 376/3/4
f 376/3/4 374/3/4 377/3/4
f 378/3/4 379/3/4 380/3/4
f 380/3/4 379/3/4 381/3/4
f 381/3/4 379/3/4 382/3/4
f 378/3/4 380/3/4 384/3/4
f 384/3/4 380/3/4 385/3/4
f 382/3/4 383/3/4 386/3/4
f 381/3/4 382/3/4 386/3/4
f 386/3/4 383/3/4 387/3/4
f 385/3/4 386/3/4 388/3/4
f 388/3/4 386/3/4 389/3/4
f 390/3/4 391/3/4 392/3/4
f 392/3/4 391/3/4 393/3/4
f 396/3/5 395/3/5 394/3/5
f 397/3/5 395/3/5 396/3/5
f 400/3/5 399/3/5 398/3/5
f 401/3/5 399/3/5 400/3/5
f 403/3/5 400/3/5 398/3/5
f 404/3/5 400/3/5 403/3/5
f 405/3/5 402/3/5 401/3/5
f 406/3/5 402/3/5 405/3/5
f 407/3/5 405/3/5 404/3/5
f 408/3/5 405/3/5 407/3/5
f 412/3/5 410/3/5 409/3/5
f 413/3/5 410/3/5 412/3/5
f 415/3/5 414/3/5 413/3/5
f 416/3/5 414/3/5 415/3/5
f 417/3/5 412/3/5 411/3/5
f 418/3/5 412/3/5 417/3/5
f 421/3/5 414/3/5 416/3/5
f 422/3/5 414/3/5 421/3/5
f 423/3/5 419/3/5 418/3/5
f 424/3/5 421/3/5 420/3/5
f 425/3/5 421/3/5 424/3/5
f 426/3/5 423/3/5 418/3/5
f 426/3/5 424/3/5 423/3/5
f 427/3/5 424/3/5 426/3/5
f 430/3/5 429/3/5 428/3/5
f 431/3/5 429/3/5 430/3/5
f 433/3/5 432/3/5 431/3/5
f 434/3/5 432/3/5 433/3/5
f 439/3/5 436/3/5 435/3/5
f 440/3/5 436/3/5 439/3/5
f 443/3/5 438/3/5 437/3/5
f 444/3/5 438/3/5 443/3/5
f 445/3/5 441/3/5 440/3/5
f 446/3/5 441/3/5 445/3/5
f 448/3/5 443/3/5 442/3/5
f 449/3/5 443/3/5 448/3/5
f 451/3/5 448/3/5 447/3/5
f 452/3/5 448/3/5 451/3/5
f 453/3/5 451/3/5 450/3/5
f 454/3/5 451/3/5 453/3/5
f 459/2/5 456/2/5 455/2/5
f 460/2/5 456/2/5 459/2/5
f 461/2/5 458/2/5 457/2/5
f 462/2/5 458/2/5 461/2/5
f 469/2/5 464/2/5 463/2/5
f 470/2/5 464/2/5 469/2/5
f 471/2/5 466/2/5 465/2/5
f 472/2/5 466/2/5 471/2/5
f 473/2/5 468/2/5 467/2/5
f 474/2/5 468/2/5 473/2/5
f 475/3/6 476/3/6 477/3/6
f 477/3/6 476/3/6 478/3/6
f 478/3/6 479/3/6 480/3/6
f 480/3/6 479/3/6 481/3/6
f 482/3/6 483/3/6 486/3/6
f 486/3/6 483/3/6 487/3/6
f 484/3/6 485/3/6 490/3/6
f 490/3/6 485/3/6 491/3/6
f 487/3/6 488/3/6 492/3/6
f 492/3/6 488/3/6 493/3/6
f 489/3/6 490/3/6 495/3/6
f 495/3/6 490/3/6 496/3/6
f 494/3/6 495/3/6 498/3/6
f 498/3/6 495/3/6 499/3/6
f 497/3/6 498/3/6 500/3/6
f 500/3/6 498/3/6 501/3/6
f 502/3/6 503/3/6 505/3/6
f 505/3/6 503/3/6 506/3/6
f 504/3/6 505/3/6 509/3/6
f 509/3/6 505/3/6 510/3/6
f 507/3/6 508/3/6 511/3/6
f 511/3/6 508/3/6 512/3/6
f 513/3/6 514/3/6 517/3/6
f 517/3/6 514/3/6 518/3/6
f 515/3/6 516/3/6 519/3/6
f 519/3/6 516/3/6 520/3/6
f 521/3/6 522/3/6 523/3/6
f 523/3/6 522/3/6 524/3/6
f 524/3/6 525/3/6 528/3/6
f 528/3/6 525/3/6 529/3/6
f 526/3/6 527/3/6 531/3/6
f 531/3/6 527/3/6 532/3/6
f 529/3/6 530/3/6 534/3/6
f 534/3/6 530/3/6 535/3/6
f 532/3/6 533/3/6 536/3/6
f 536/3/6 533/3/6 537/3/6
f 537/3/6 538/3/6 539/3/6
f 539/3/6 538/3/6 540/3/6
f 541/3/6 542/3/6 543/3/6
f 543/3/6 542/3/6 544/3/6
f 541/3/6 543/3/6 546/3/6
f 546/3/6 543/3/6 547/3/6
f 544/3/6 545/3/6 548/3/6
f 548/3/6 545/3/6 549/3/6
f 547/3/6 548/3/6 550/3/6
f 550/3/6 548/3/6 551/3/6
f 552/3/6 553/3/6 554/3/6
f 554/3/6 553/3/6 555/3/6
f 555/3/6 553/3/6 556/3/6
f 556/3/6 553/3/6 557/3/6
f 552/3/6 554/3/6 558/3/6
f 557/3/6 553/3/6 559/3/6
f 552/3/6 558/3/6 560/3/6
f 558/3/6 559/3/6 560/3/6
f 559/3/6 553/3/6 561/3/6
f 560/3/6 559/3/6 561/3/6
f 562/2/6 563/2/6 564/2/6
f 564/2/6 563/2/6 565/2/6
f 566/2/6 567/2/6 568/2/6
f 568/2/6 567/2/6 569/2/6
f 570/2/6 571/2/6 574/2/6
f 572/2/6 573/2/6 575/2/6
f 575/2/6 573/2/6 576/2/6
f 570/2/6 574/2/6 579/2/6
f 576/2/6 577/2/6 579/2/6
f 575/2/6 576/2/6 579/2/6
f 574/2/6 575/2/6 579/2/6
f 579/2/6 577/2/6 580/2/6
f 580/2/6 577/2/6 581/2/6
f 581/2/6 577/2/6 582/2/6
f 578/2/6 579/2/6 583/2/6
f 583/2/6 579/2/6 584/2/6
f 580/2/6 581/2/6 585/2/6
f 585/2/6 581/2/6 586/2/6
f 582/2/6 577/2/6 587/2/6
f 587/2/6 577/2/6 588/2/6
