# MagicaVoxel @ Ephtracy

# group
o 

# material
mtllib Ripe.mtl
usemtl palette

# normals
vn -1 0 0
vn 1 0 0
vn 0 0 1
vn 0 0 -1
vn 0 -1 0
vn 0 1 0

# texcoords
vt 0.150391 0.5
vt 0.955078 0.5

# verts
v -0.4 0.8 0.2
v -0.4 0.8 -0.5
v -0.4 0.9 0.3
v -0.4 0.9 0.2
v -0.4 1.1 0.3
v -0.4 1.1 -0.5
v -0.3 0.7 0.2
v -0.3 0.7 -0.5
v -0.3 0.8 0.3
v -0.3 0.8 0.2
v -0.3 0.8 -0.5
v -0.3 0.8 -0.6
v -0.3 0.9 0.3
v -0.3 0.9 0.2
v -0.3 1.1 0.2
v -0.3 1.1 -0.5
v -0.3 1.1 -0.6
v -0.3 1.2 0.2
v -0.3 1.2 -0.5
v -0.2 1.2 0.1
v -0.2 1.2 -0.4
v -0.2 1.3 0.1
v -0.2 1.3 -0.4
v -0.1 0.6 2.98023e-08
v -0.1 0.6 -0.3
v -0.1 0.7 2.98023e-08
v -0.1 0.7 -0.3
v 0 0 -0.1
v 0 0 -0.2
v 0 0.6 -0.1
v 0 0.6 -0.2
v 0 1.3 -0.1
v 0 1.3 -0.2
v 0 1.4 -0.1
v 0 1.4 -0.2
v 0.1 0 -0.1
v 0.1 0 -0.2
v 0.1 0.6 -0.1
v 0.1 0.6 -0.2
v 0.1 1.3 -0.1
v 0.1 1.3 -0.2
v 0.1 1.4 -0.1
v 0.1 1.4 -0.2
v 0.2 0.6 2.98023e-08
v 0.2 0.6 -0.3
v 0.2 0.7 2.98023e-08
v 0.2 0.7 -0.3
v 0.3 1.2 0.1
v 0.3 1.2 -0.4
v 0.3 1.3 0.1
v 0.3 1.3 -0.4
v 0.4 0.7 0.2
v 0.4 0.7 -0.5
v 0.4 0.8 0.2
v 0.4 0.8 -0.5
v 0.4 1.1 0.2
v 0.4 1.1 -0.5
v 0.4 1.2 0.2
v 0.4 1.2 -0.5
v 0.5 0.8 0.3
v 0.5 0.8 -0.6
v 0.5 1.1 0.3
v 0.5 1.1 -0.6
v -0.4 0.9 0.3
v -0.4 1.1 0.3
v -0.3 0.8 0.3
v -0.3 0.9 0.3
v 0.5 0.8 0.3
v 0.5 1.1 0.3
v -0.4 0.8 0.2
v -0.4 0.9 0.2
v -0.3 0.7 0.2
v -0.3 0.8 0.2
v -0.3 0.9 0.2
v -0.3 1.1 0.2
v -0.3 1.2 0.2
v 0.4 0.7 0.2
v 0.4 0.8 0.2
v 0.4 1.1 0.2
v 0.4 1.2 0.2
v -0.2 1.2 0.1
v -0.2 1.3 0.1
v 0.3 1.2 0.1
v 0.3 1.3 0.1
v -0.1 0.6 2.98023e-08
v -0.1 0.7 2.98023e-08
v 0.2 0.6 2.98023e-08
v 0.2 0.7 2.98023e-08
v 0 0 -0.1
v 0 0.6 -0.1
v 0 1.3 -0.1
v 0 1.4 -0.1
v 0.1 0 -0.1
v 0.1 0.6 -0.1
v 0.1 1.3 -0.1
v 0.1 1.4 -0.1
v 0 0 -0.2
v 0 0.6 -0.2
v 0 1.3 -0.2
v 0 1.4 -0.2
v 0.1 0 -0.2
v 0.1 0.6 -0.2
v 0.1 1.3 -0.2
v 0.1 1.4 -0.2
v -0.1 0.6 -0.3
v -0.1 0.7 -0.3
v 0.2 0.6 -0.3
v 0.2 0.7 -0.3
v -0.2 1.2 -0.4
v -0.2 1.3 -0.4
v 0.3 1.2 -0.4
v 0.3 1.3 -0.4
v -0.4 0.8 -0.5
v -0.4 1.1 -0.5
v -0.3 0.7 -0.5
v -0.3 0.8 -0.5
v -0.3 1.1 -0.5
v -0.3 1.2 -0.5
v 0.4 0.7 -0.5
v 0.4 0.8 -0.5
v 0.4 1.1 -0.5
v 0.4 1.2 -0.5
v -0.3 0.8 -0.6
v -0.3 1.1 -0.6
v 0.5 0.8 -0.6
v 0.5 1.1 -0.6
v 0 0 -0.1
v 0.1 0 -0.1
v 0 0 -0.2
v 0.1 0 -0.2
v -0.1 0.6 2.98023e-08
v 0.2 0.6 2.98023e-08
v 0 0.6 -0.1
v 0.1 0.6 -0.1
v 0 0.6 -0.2
v 0.1 0.6 -0.2
v -0.1 0.6 -0.3
v 0.2 0.6 -0.3
v -0.3 0.7 0.2
v 0.4 0.7 0.2
v -0.1 0.7 2.98023e-08
v 0.2 0.7 2.98023e-08
v -0.1 0.7 -0.3
v 0.2 0.7 -0.3
v -0.3 0.7 -0.5
v 0.4 0.7 -0.5
v -0.3 0.8 0.3
v 0.5 0.8 0.3
v -0.4 0.8 0.2
v -0.3 0.8 0.2
v 0.4 0.8 0.2
v -0.4 0.8 -0.5
v -0.3 0.8 -0.5
v 0.4 0.8 -0.5
v -0.3 0.8 -0.6
v 0.5 0.8 -0.6
v -0.4 0.9 0.3
v -0.3 0.9 0.3
v -0.4 0.9 0.2
v -0.3 0.9 0.2
v -0.4 1.1 0.3
v 0.5 1.1 0.3
v -0.3 1.1 0.2
v 0.4 1.1 0.2
v -0.4 1.1 -0.5
v -0.3 1.1 -0.5
v 0.4 1.1 -0.5
v -0.3 1.1 -0.6
v 0.5 1.1 -0.6
v -0.3 1.2 0.2
v 0.4 1.2 0.2
v -0.2 1.2 0.1
v 0.3 1.2 0.1
v -0.2 1.2 -0.4
v 0.3 1.2 -0.4
v -0.3 1.2 -0.5
v 0.4 1.2 -0.5
v -0.2 1.3 0.1
v 0.3 1.3 0.1
v 0 1.3 -0.1
v 0.1 1.3 -0.1
v 0 1.3 -0.2
v 0.1 1.3 -0.2
v -0.2 1.3 -0.4
v 0.3 1.3 -0.4
v 0 1.4 -0.1
v 0.1 1.4 -0.1
v 0 1.4 -0.2
v 0.1 1.4 -0.2

# faces
f 4/1/1 2/1/1 1/1/1
f 5/1/1 4/1/1 3/1/1
f 6/1/1 2/1/1 4/1/1
f 6/1/1 4/1/1 5/1/1
f 10/1/1 8/1/1 7/1/1
f 11/1/1 8/1/1 10/1/1
f 13/1/1 10/1/1 9/1/1
f 14/1/1 10/1/1 13/1/1
f 16/1/1 12/1/1 11/1/1
f 17/1/1 12/1/1 16/1/1
f 18/1/1 16/1/1 15/1/1
f 19/1/1 16/1/1 18/1/1
f 22/1/1 21/1/1 20/1/1
f 23/1/1 21/1/1 22/1/1
f 26/1/1 25/1/1 24/1/1
f 27/1/1 25/1/1 26/1/1
f 30/2/1 29/2/1 28/2/1
f 31/2/1 29/2/1 30/2/1
f 34/2/1 33/2/1 32/2/1
f 35/2/1 33/2/1 34/2/1
f 36/2/2 37/2/2 38/2/2
f 38/2/2 37/2/2 39/2/2
f 40/2/2 41/2/2 42/2/2
f 42/2/2 41/2/2 43/2/2
f 44/1/2 45/1/2 46/1/2
f 46/1/2 45/1/2 47/1/2
f 48/1/2 49/1/2 50/1/2
f 50/1/2 49/1/2 51/1/2
f 52/1/2 53/1/2 54/1/2
f 54/1/2 53/1/2 55/1/2
f 56/1/2 57/1/2 58/1/2
f 58/1/2 57/1/2 59/1/2
f 60/1/2 61/1/2 62/1/2
f 62/1/2 61/1/2 63/1/2
f 67/1/3 65/1/3 64/1/3
f 68/1/3 67/1/3 66/1/3
f 69/1/3 65/1/3 67/1/3
f 69/1/3 67/1/3 68/1/3
f 73/1/3 71/1/3 70/1/3
f 74/1/3 71/1/3 73/1/3
f 77/1/3 73/1/3 72/1/3
f 78/1/3 73/1/3 77/1/3
f 79/1/3 76/1/3 75/1/3
f 80/1/3 76/1/3 79/1/3
f 83/1/3 82/1/3 81/1/3
f 84/1/3 82/1/3 83/1/3
f 87/1/3 86/1/3 85/1/3
f 88/1/3 86/1/3 87/1/3
f 93/2/3 90/2/3 89/2/3
f 94/2/3 90/2/3 93/2/3
f 95/2/3 92/2/3 91/2/3
f 96/2/3 92/2/3 95/2/3
f 97/2/4 98/2/4 101/2/4
f 101/2/4 98/2/4 102/2/4
f 99/2/4 100/2/4 103/2/4
f 103/2/4 100/2/4 104/2/4
f 105/1/4 106/1/4 107/1/4
f 107/1/4 106/1/4 108/1/4
f 109/1/4 110/1/4 111/1/4
f 111/1/4 110/1/4 112/1/4
f 113/1/4 114/1/4 116/1/4
f 116/1/4 114/1/4 117/1/4
f 115/1/4 116/1/4 119/1/4
f 119/1/4 116/1/4 120/1/4
f 117/1/4 118/1/4 121/1/4
f 121/1/4 118/1/4 122/1/4
f 123/1/4 124/1/4 125/1/4
f 125/1/4 124/1/4 126/1/4
f 129/2/5 128/2/5 127/2/5
f 130/2/5 128/2/5 129/2/5
f 133/1/5 132/1/5 131/1/5
f 134/1/5 132/1/5 133/1/5
f 135/1/5 133/1/5 131/1/5
f 136/1/5 132/1/5 134/1/5
f 137/1/5 135/1/5 131/1/5
f 137/1/5 136/1/5 135/1/5
f 138/1/5 132/1/5 136/1/5
f 138/1/5 136/1/5 137/1/5
f 141/1/5 140/1/5 139/1/5
f 142/1/5 140/1/5 141/1/5
f 143/1/5 141/1/5 139/1/5
f 144/1/5 140/1/5 142/1/5
f 145/1/5 143/1/5 139/1/5
f 145/1/5 144/1/5 143/1/5
f 146/1/5 140/1/5 144/1/5
f 146/1/5 144/1/5 145/1/5
f 150/1/5 148/1/5 147/1/5
f 151/1/5 148/1/5 150/1/5
f 152/1/5 150/1/5 149/1/5
f 153/1/5 150/1/5 152/1/5
f 154/1/5 148/1/5 151/1/5
f 155/1/5 154/1/5 153/1/5
f 156/1/5 148/1/5 154/1/5
f 156/1/5 154/1/5 155/1/5
f 159/1/5 158/1/5 157/1/5
f 160/1/5 158/1/5 159/1/5
f 161/1/6 162/1/6 163/1/6
f 163/1/6 162/1/6 164/1/6
f 161/1/6 163/1/6 165/1/6
f 165/1/6 163/1/6 166/1/6
f 164/1/6 162/1/6 167/1/6
f 166/1/6 167/1/6 168/1/6
f 167/1/6 162/1/6 169/1/6
f 168/1/6 167/1/6 169/1/6
f 170/1/6 171/1/6 172/1/6
f 172/1/6 171/1/6 173/1/6
f 170/1/6 172/1/6 174/1/6
f 173/1/6 171/1/6 175/1/6
f 170/1/6 174/1/6 176/1/6
f 174/1/6 175/1/6 176/1/6
f 175/1/6 171/1/6 177/1/6
f 176/1/6 175/1/6 177/1/6
f 178/1/6 179/1/6 180/1/6
f 180/1/6 179/1/6 181/1/6
f 178/1/6 180/1/6 182/1/6
f 181/1/6 179/1/6 183/1/6
f 178/1/6 182/1/6 184/1/6
f 182/1/6 183/1/6 184/1/6
f 183/1/6 179/1/6 185/1/6
f 184/1/6 183/1/6 185/1/6
f 186/2/6 187/2/6 188/2/6
f 188/2/6 187/2/6 189/2/6
