# MagicaVoxel @ Ephtracy

# group
o 

# material
mtllib Rotten.mtl
usemtl palette

# normals
vn -1 0 0
vn 1 0 0
vn 0 0 1
vn 0 0 -1
vn 0 -1 0
vn 0 1 0

# texcoords
vt 0.0605469 0.5
vt 0.150391 0.5
vt 0.900391 0.5
vt 0.955078 0.5

# verts
v -0.4 0.8 0.2
v -0.4 0.8 0.1
v -0.4 0.8 -0.1
v -0.4 0.8 -0.3
v -0.4 0.8 -0.5
v -0.4 0.9 0.3
v -0.4 0.9 0.2
v -0.4 0.9 0.1
v -0.4 0.9 -0.1
v -0.4 1 -0.3
v -0.4 1 -0.4
v -0.4 1.1 0.3
v -0.4 1.1 -0.4
v -0.4 1.1 -0.5
v -0.3 0.7 0.2
v -0.3 0.7 2.98023e-08
v -0.3 0.7 -0.5
v -0.3 0.8 0.3
v -0.3 0.8 0.2
v -0.3 0.8 0.1
v -0.3 0.8 2.98023e-08
v -0.3 0.8 -0.1
v -0.3 0.8 -0.3
v -0.3 0.8 -0.5
v -0.3 0.8 -0.6
v -0.3 0.9 0.3
v -0.3 0.9 0.2
v -0.3 1.1 0.2
v -0.3 1.1 0.1
v -0.3 1.1 2.98023e-08
v -0.3 1.1 -0.1
v -0.3 1.1 -0.4
v -0.3 1.1 -0.5
v -0.3 1.1 -0.6
v -0.3 1.2 0.2
v -0.3 1.2 0.1
v -0.3 1.2 2.98023e-08
v -0.3 1.2 -0.1
v -0.3 1.2 -0.4
v -0.3 1.2 -0.5
v -0.2 1.2 0.1
v -0.2 1.2 2.98023e-08
v -0.2 1.2 -0.1
v -0.2 1.2 -0.4
v -0.2 1.3 0.1
v -0.2 1.3 2.98023e-08
v -0.2 1.3 -0.1
v -0.2 1.3 -0.4
v -0.1 0.6 2.98023e-08
v -0.1 0.6 -0.2
v -0.1 0.6 -0.3
v -0.1 0.7 2.98023e-08
v -0.1 0.7 -0.2
v -0.1 0.7 -0.3
v 0 0 -0.1
v 0 0 -0.2
v 0 0.4 -0.1
v 0 0.4 -0.2
v 0 0.6 -0.1
v 0 0.6 -0.2
v 0 1.3 -0.1
v 0 1.3 -0.2
v 0 1.4 -0.1
v 0 1.4 -0.2
v 0.1 0 -0.1
v 0.1 0 -0.2
v 0.1 0.4 -0.1
v 0.1 0.4 -0.2
v 0.1 0.6 -0.1
v 0.1 0.6 -0.2
v 0.1 1.3 -0.1
v 0.1 1.3 -0.2
v 0.1 1.4 -0.1
v 0.1 1.4 -0.2
v 0.2 0.6 2.98023e-08
v 0.2 0.6 -0.1
v 0.2 0.6 -0.3
v 0.2 0.7 2.98023e-08
v 0.2 0.7 -0.1
v 0.2 0.7 -0.3
v 0.3 1.2 0.1
v 0.3 1.2 2.98023e-08
v 0.3 1.2 -0.2
v 0.3 1.2 -0.3
v 0.3 1.2 -0.4
v 0.3 1.3 0.1
v 0.3 1.3 2.98023e-08
v 0.3 1.3 -0.3
v 0.3 1.3 -0.4
v 0.4 0.7 0.2
v 0.4 0.7 -0.1
v 0.4 0.7 -0.5
v 0.4 0.8 0.2
v 0.4 0.8 2.98023e-08
v 0.4 0.8 -0.1
v 0.4 0.8 -0.4
v 0.4 0.8 -0.5
v 0.4 1.1 0.2
v 0.4 1.1 -0.2
v 0.4 1.1 -0.3
v 0.4 1.1 -0.5
v 0.4 1.2 0.2
v 0.4 1.2 -0.2
v 0.4 1.2 -0.3
v 0.4 1.2 -0.5
v 0.5 0.8 0.3
v 0.5 0.8 2.98023e-08
v 0.5 0.8 -0.1
v 0.5 0.8 -0.4
v 0.5 0.8 -0.5
v 0.5 0.8 -0.6
v 0.5 0.9 0.3
v 0.5 0.9 0.2
v 0.5 0.9 0.1
v 0.5 0.9 2.98023e-08
v 0.5 1 0.2
v 0.5 1 0.1
v 0.5 1 -0.1
v 0.5 1 -0.2
v 0.5 1 -0.3
v 0.5 1 -0.4
v 0.5 1 -0.5
v 0.5 1 -0.6
v 0.5 1.1 0.3
v 0.5 1.1 -0.2
v 0.5 1.1 -0.3
v 0.5 1.1 -0.5
v 0.5 1.1 -0.6
v -0.4 0.9 0.3
v -0.4 1.1 0.3
v -0.3 0.8 0.3
v -0.3 0.9 0.3
v -0.3 1 0.3
v -0.3 1.1 0.3
v -0.2 0.8 0.3
v -0.2 1 0.3
v -0.1 1 0.3
v -0.1 1.1 0.3
v 0 0.9 0.3
v 0 1 0.3
v 0 1.1 0.3
v 0.1 0.8 0.3
v 0.1 0.9 0.3
v 0.1 1 0.3
v 0.1 1.1 0.3
v 0.4 0.8 0.3
v 0.4 0.9 0.3
v 0.5 0.8 0.3
v 0.5 0.9 0.3
v 0.5 1.1 0.3
v -0.4 0.8 0.2
v -0.4 0.9 0.2
v -0.3 0.7 0.2
v -0.3 0.8 0.2
v -0.3 0.9 0.2
v -0.3 1.1 0.2
v -0.3 1.2 0.2
v -0.2 0.7 0.2
v -0.2 0.8 0.2
v -0.2 1.1 0.2
v -0.2 1.2 0.2
v -0.1 1.1 0.2
v 0 0.7 0.2
v 0 0.8 0.2
v 0 1.1 0.2
v 0.1 0.8 0.2
v 0.1 1.1 0.2
v 0.1 1.2 0.2
v 0.2 1.1 0.2
v 0.2 1.2 0.2
v 0.3 1.1 0.2
v 0.3 1.2 0.2
v 0.4 0.7 0.2
v 0.4 0.8 0.2
v 0.4 1.1 0.2
v 0.4 1.2 0.2
v -0.2 1.2 0.1
v -0.2 1.3 0.1
v 0.1 1.2 0.1
v 0.1 1.3 0.1
v 0.2 1.2 0.1
v 0.2 1.3 0.1
v 0.3 1.2 0.1
v 0.3 1.3 0.1
v -0.1 0.6 2.98023e-08
v -0.1 0.7 2.98023e-08
v 0.1 0.6 2.98023e-08
v 0.1 0.7 2.98023e-08
v 0.2 0.6 2.98023e-08
v 0.2 0.7 2.98023e-08
v 0 0 -0.1
v 0 0.4 -0.1
v 0 0.6 -0.1
v 0 1.3 -0.1
v 0 1.4 -0.1
v 0.1 0 -0.1
v 0.1 0.4 -0.1
v 0.1 0.6 -0.1
v 0.1 1.3 -0.1
v 0.1 1.4 -0.1
v 0 0 -0.2
v 0 0.4 -0.2
v 0 0.6 -0.2
v 0 1.3 -0.2
v 0 1.4 -0.2
v 0.1 0 -0.2
v 0.1 0.4 -0.2
v 0.1 0.6 -0.2
v 0.1 1.3 -0.2
v 0.1 1.4 -0.2
v -0.1 0.6 -0.3
v -0.1 0.7 -0.3
v 0 0.6 -0.3
v 0 0.7 -0.3
v 0.2 0.6 -0.3
v 0.2 0.7 -0.3
v -0.2 1.2 -0.4
v -0.2 1.3 -0.4
v -0.1 1.2 -0.4
v -0.1 1.3 -0.4
v 0.1 1.2 -0.4
v 0.2 1.2 -0.4
v 0.2 1.3 -0.4
v 0.3 1.2 -0.4
v 0.3 1.3 -0.4
v -0.4 0.8 -0.5
v -0.4 1.1 -0.5
v -0.3 0.7 -0.5
v -0.3 0.8 -0.5
v -0.3 1.1 -0.5
v -0.3 1.2 -0.5
v -0.2 0.7 -0.5
v -0.2 0.8 -0.5
v -0.2 1.1 -0.5
v -0.1 0.7 -0.5
v -0.1 0.8 -0.5
v -0.1 1.1 -0.5
v -0.1 1.2 -0.5
v 0 0.7 -0.5
v 0 0.8 -0.5
v 0.1 1.1 -0.5
v 0.1 1.2 -0.5
v 0.2 0.8 -0.5
v 0.2 1.1 -0.5
v 0.2 1.2 -0.5
v 0.3 0.7 -0.5
v 0.3 0.8 -0.5
v 0.3 1.1 -0.5
v 0.4 0.7 -0.5
v 0.4 0.8 -0.5
v 0.4 1.1 -0.5
v 0.4 1.2 -0.5
v -0.3 0.8 -0.6
v -0.3 1.1 -0.6
v -0.2 0.9 -0.6
v -0.2 1 -0.6
v -0.2 1.1 -0.6
v -0.1 0.8 -0.6
v -0.1 0.9 -0.6
v -0.1 1 -0.6
v -0.1 1.1 -0.6
v 0 0.9 -0.6
v 0 1 -0.6
v 0.1 1 -0.6
v 0.1 1.1 -0.6
v 0.2 0.8 -0.6
v 0.2 1 -0.6
v 0.2 1.1 -0.6
v 0.3 0.8 -0.6
v 0.3 0.9 -0.6
v 0.3 1 -0.6
v 0.3 1.1 -0.6
v 0.4 0.8 -0.6
v 0.4 0.9 -0.6
v 0.5 0.8 -0.6
v 0.5 1 -0.6
v 0.5 1.1 -0.6
v 0 0 -0.1
v 0.1 0 -0.1
v 0 0 -0.2
v 0.1 0 -0.2
v -0.1 0.6 2.98023e-08
v 0.1 0.6 2.98023e-08
v 0.2 0.6 2.98023e-08
v 0 0.6 -0.1
v 0.1 0.6 -0.1
v 0.2 0.6 -0.1
v -0.1 0.6 -0.2
v 0 0.6 -0.2
v 0.1 0.6 -0.2
v -0.1 0.6 -0.3
v 0 0.6 -0.3
v 0.2 0.6 -0.3
v -0.3 0.7 0.2
v -0.2 0.7 0.2
v 0 0.7 0.2
v 0.4 0.7 0.2
v -0.2 0.7 0.1
v 0 0.7 0.1
v -0.3 0.7 2.98023e-08
v -0.1 0.7 2.98023e-08
v 0.1 0.7 2.98023e-08
v 0.2 0.7 2.98023e-08
v 0.2 0.7 -0.1
v 0.4 0.7 -0.1
v -0.1 0.7 -0.2
v -0.1 0.7 -0.3
v 0 0.7 -0.3
v 0.2 0.7 -0.3
v -0.2 0.7 -0.4
v -0.1 0.7 -0.4
v 0 0.7 -0.4
v 0.3 0.7 -0.4
v -0.3 0.7 -0.5
v -0.2 0.7 -0.5
v -0.1 0.7 -0.5
v 0 0.7 -0.5
v 0.3 0.7 -0.5
v 0.4 0.7 -0.5
v -0.3 0.8 0.3
v -0.2 0.8 0.3
v 0.1 0.8 0.3
v 0.4 0.8 0.3
v 0.5 0.8 0.3
v -0.4 0.8 0.2
v -0.3 0.8 0.2
v -0.2 0.8 0.2
v 0 0.8 0.2
v 0.1 0.8 0.2
v 0.4 0.8 0.2
v -0.4 0.8 0.1
v -0.3 0.8 0.1
v -0.3 0.8 2.98023e-08
v 0.4 0.8 2.98023e-08
v 0.5 0.8 2.98023e-08
v -0.4 0.8 -0.1
v -0.3 0.8 -0.1
v 0.4 0.8 -0.1
v 0.5 0.8 -0.1
v -0.4 0.8 -0.3
v -0.3 0.8 -0.3
v 0.4 0.8 -0.4
v 0.5 0.8 -0.4
v -0.4 0.8 -0.5
v -0.3 0.8 -0.5
v -0.2 0.8 -0.5
v -0.1 0.8 -0.5
v 0 0.8 -0.5
v 0.2 0.8 -0.5
v 0.3 0.8 -0.5
v 0.4 0.8 -0.5
v 0.5 0.8 -0.5
v -0.3 0.8 -0.6
v -0.1 0.8 -0.6
v 0.2 0.8 -0.6
v 0.3 0.8 -0.6
v 0.4 0.8 -0.6
v 0.5 0.8 -0.6
v -0.4 0.9 0.3
v -0.3 0.9 0.3
v -0.4 0.9 0.2
v -0.3 0.9 0.2
v -0.4 1.1 0.3
v -0.3 1.1 0.3
v -0.1 1.1 0.3
v 0 1.1 0.3
v 0.1 1.1 0.3
v 0.5 1.1 0.3
v -0.3 1.1 0.2
v -0.2 1.1 0.2
v -0.1 1.1 0.2
v 0 1.1 0.2
v 0.1 1.1 0.2
v 0.2 1.1 0.2
v 0.3 1.1 0.2
v 0.4 1.1 0.2
v -0.3 1.1 0.1
v -0.3 1.1 2.98023e-08
v -0.3 1.1 -0.1
v 0.4 1.1 -0.2
v 0.5 1.1 -0.2
v 0.4 1.1 -0.3
v 0.5 1.1 -0.3
v -0.4 1.1 -0.4
v -0.3 1.1 -0.4
v -0.4 1.1 -0.5
v -0.3 1.1 -0.5
v -0.2 1.1 -0.5
v -0.1 1.1 -0.5
v 0.1 1.1 -0.5
v 0.2 1.1 -0.5
v 0.3 1.1 -0.5
v 0.4 1.1 -0.5
v 0.5 1.1 -0.5
v -0.3 1.1 -0.6
v -0.2 1.1 -0.6
v -0.1 1.1 -0.6
v 0.1 1.1 -0.6
v 0.2 1.1 -0.6
v 0.3 1.1 -0.6
v 0.5 1.1 -0.6
v -0.3 1.2 0.2
v -0.2 1.2 0.2
v 0.1 1.2 0.2
v 0.2 1.2 0.2
v 0.3 1.2 0.2
v 0.4 1.2 0.2
v -0.3 1.2 0.1
v -0.2 1.2 0.1
v 0.1 1.2 0.1
v 0.2 1.2 0.1
v 0.3 1.2 0.1
v -0.3 1.2 2.98023e-08
v -0.2 1.2 2.98023e-08
v 0.3 1.2 2.98023e-08
v -0.3 1.2 -0.1
v -0.2 1.2 -0.1
v 0.3 1.2 -0.2
v 0.4 1.2 -0.2
v 0.3 1.2 -0.3
v 0.4 1.2 -0.3
v -0.3 1.2 -0.4
v -0.2 1.2 -0.4
v -0.1 1.2 -0.4
v 0.1 1.2 -0.4
v 0.2 1.2 -0.4
v 0.3 1.2 -0.4
v -0.3 1.2 -0.5
v -0.1 1.2 -0.5
v 0.1 1.2 -0.5
v 0.2 1.2 -0.5
v 0.4 1.2 -0.5
v -0.2 1.3 0.1
v 0.1 1.3 0.1
v 0.2 1.3 0.1
v 0.3 1.3 0.1
v -0.2 1.3 2.98023e-08
v -0.1 1.3 2.98023e-08
v 0.1 1.3 2.98023e-08
v 0.2 1.3 2.98023e-08
v 0.3 1.3 2.98023e-08
v -0.2 1.3 -0.1
v -0.1 1.3 -0.1
v 0 1.3 -0.1
v 0.1 1.3 -0.1
v 0 1.3 -0.2
v 0.1 1.3 -0.2
v 0 1.3 -0.3
v 0.1 1.3 -0.3
v 0.2 1.3 -0.3
v 0.3 1.3 -0.3
v -0.2 1.3 -0.4
v -0.1 1.3 -0.4
v 0.2 1.3 -0.4
v 0.3 1.3 -0.4
v 0 1.4 -0.1
v 0.1 1.4 -0.1
v 0 1.4 -0.2
v 0.1 1.4 -0.2

# faces
f 7/1/1 2/1/1 1/1/1
f 8/2/1 3/2/1 2/2/1
f 8/1/1 2/1/1 7/1/1
f 9/3/1 4/3/1 3/3/1
f 9/2/1 3/2/1 8/2/1
f 10/2/1 5/2/1 4/2/1
f 10/3/1 4/3/1 9/3/1
f 10/3/1 9/3/1 8/3/1
f 10/3/1 7/3/1 6/3/1
f 10/3/1 8/3/1 7/3/1
f 11/2/1 5/2/1 10/2/1
f 12/3/1 10/3/1 6/3/1
f 12/3/1 11/3/1 10/3/1
f 13/2/1 5/2/1 11/2/1
f 13/3/1 11/3/1 12/3/1
f 14/2/1 5/2/1 13/2/1
f 19/2/1 16/2/1 15/2/1
f 20/2/1 16/2/1 19/2/1
f 21/1/1 17/1/1 16/1/1
f 21/2/1 16/2/1 20/2/1
f 22/1/1 17/1/1 21/1/1
f 23/1/1 17/1/1 22/1/1
f 24/1/1 17/1/1 23/1/1
f 26/2/1 19/2/1 18/2/1
f 27/2/1 19/2/1 26/2/1
f 33/3/1 25/3/1 24/3/1
f 34/3/1 25/3/1 33/3/1
f 35/1/1 29/1/1 28/1/1
f 36/2/1 30/2/1 29/2/1
f 36/1/1 29/1/1 35/1/1
f 37/1/1 31/1/1 30/1/1
f 37/2/1 30/2/1 36/2/1
f 38/3/1 32/3/1 31/3/1
f 38/1/1 31/1/1 37/1/1
f 39/1/1 33/1/1 32/1/1
f 39/3/1 32/3/1 38/3/1
f 40/1/1 33/1/1 39/1/1
f 45/3/1 42/3/1 41/3/1
f 46/1/1 43/1/1 42/1/1
f 46/3/1 42/3/1 45/3/1
f 47/3/1 44/3/1 43/3/1
f 47/1/1 43/1/1 46/1/1
f 48/3/1 44/3/1 47/3/1
f 52/3/1 50/3/1 49/3/1
f 53/1/1 51/1/1 50/1/1
f 53/3/1 50/3/1 52/3/1
f 54/1/1 51/1/1 53/1/1
f 57/4/1 56/4/1 55/4/1
f 58/4/1 56/4/1 57/4/1
f 59/3/1 58/3/1 57/3/1
f 60/3/1 58/3/1 59/3/1
f 63/4/1 62/4/1 61/4/1
f 64/4/1 62/4/1 63/4/1
f 65/4/2 66/4/2 67/4/2
f 67/4/2 66/4/2 68/4/2
f 67/3/2 68/3/2 69/3/2
f 69/3/2 68/3/2 70/3/2
f 71/4/2 72/4/2 73/4/2
f 73/4/2 72/4/2 74/4/2
f 75/2/2 76/2/2 78/2/2
f 76/3/2 77/3/2 79/3/2
f 78/2/2 76/2/2 79/2/2
f 79/3/2 77/3/2 80/3/2
f 81/2/2 82/2/2 86/2/2
f 82/1/2 83/1/2 87/1/2
f 86/2/2 82/2/2 87/2/2
f 83/1/2 84/1/2 87/1/2
f 84/3/2 85/3/2 88/3/2
f 87/1/2 84/1/2 88/1/2
f 88/3/2 85/3/2 89/3/2
f 90/2/2 91/2/2 93/2/2
f 93/2/2 91/2/2 94/2/2
f 91/3/2 92/3/2 95/3/2
f 94/2/2 91/2/2 95/2/2
f 95/3/2 92/3/2 96/3/2
f 96/3/2 92/3/2 97/3/2
f 98/3/2 99/3/2 102/3/2
f 99/1/2 100/1/2 103/1/2
f 102/3/2 99/3/2 103/3/2
f 100/3/2 101/3/2 104/3/2
f 103/1/2 100/1/2 104/1/2
f 104/3/2 101/3/2 105/3/2
f 106/1/2 107/1/2 112/1/2
f 112/1/2 107/1/2 113/1/2
f 113/1/2 107/1/2 114/1/2
f 107/2/2 108/2/2 115/2/2
f 114/1/2 107/1/2 115/1/2
f 113/1/2 114/1/2 116/1/2
f 112/3/2 113/3/2 116/3/2
f 114/2/2 115/2/2 117/2/2
f 116/1/2 114/1/2 117/1/2
f 115/2/2 108/2/2 118/2/2
f 117/2/2 115/2/2 118/2/2
f 108/3/2 109/3/2 118/3/2
f 118/3/2 109/3/2 119/3/2
f 119/3/2 109/3/2 120/3/2
f 109/2/2 110/2/2 121/2/2
f 120/3/2 109/3/2 121/3/2
f 110/1/2 111/1/2 122/1/2
f 121/2/2 110/2/2 122/2/2
f 122/1/2 111/1/2 123/1/2
f 116/3/2 117/3/2 124/3/2
f 112/3/2 116/3/2 124/3/2
f 117/3/2 118/3/2 124/3/2
f 118/3/2 119/3/2 124/3/2
f 119/1/2 120/1/2 125/1/2
f 124/3/2 119/3/2 125/3/2
f 120/3/2 121/3/2 126/3/2
f 125/1/2 120/1/2 126/1/2
f 121/3/2 122/3/2 126/3/2
f 122/2/2 123/2/2 127/2/2
f 126/3/2 122/3/2 127/3/2
f 127/2/2 123/2/2 128/2/2
f 132/3/3 130/3/3 129/3/3
f 133/3/3 130/3/3 132/3/3
f 134/3/3 130/3/3 133/3/3
f 135/2/3 132/2/3 131/2/3
f 135/2/3 133/2/3 132/2/3
f 136/1/3 134/1/3 133/1/3
f 136/2/3 133/2/3 135/2/3
f 137/3/3 136/3/3 135/3/3
f 137/1/3 134/1/3 136/1/3
f 138/1/3 134/1/3 137/1/3
f 139/3/3 137/3/3 135/3/3
f 140/2/3 138/2/3 137/2/3
f 140/3/3 137/3/3 139/3/3
f 141/2/3 138/2/3 140/2/3
f 142/3/3 139/3/3 135/3/3
f 143/2/3 140/2/3 139/2/3
f 143/3/3 139/3/3 142/3/3
f 144/1/3 141/1/3 140/1/3
f 144/2/3 140/2/3 143/2/3
f 145/1/3 141/1/3 144/1/3
f 146/2/3 143/2/3 142/2/3
f 147/3/3 144/3/3 143/3/3
f 147/2/3 143/2/3 146/2/3
f 147/3/3 145/3/3 144/3/3
f 148/1/3 147/1/3 146/1/3
f 149/3/3 145/3/3 147/3/3
f 149/1/3 147/1/3 148/1/3
f 150/3/3 145/3/3 149/3/3
f 154/1/3 152/1/3 151/1/3
f 155/1/3 152/1/3 154/1/3
f 158/2/3 154/2/3 153/2/3
f 159/2/3 154/2/3 158/2/3
f 160/1/3 157/1/3 156/1/3
f 161/1/3 157/1/3 160/1/3
f 162/3/3 161/3/3 160/3/3
f 163/3/3 159/3/3 158/3/3
f 164/3/3 159/3/3 163/3/3
f 165/3/3 161/3/3 162/3/3
f 166/2/3 164/2/3 163/2/3
f 167/3/3 161/3/3 165/3/3
f 168/3/3 161/3/3 167/3/3
f 169/1/3 168/1/3 167/1/3
f 170/1/3 168/1/3 169/1/3
f 171/2/3 170/2/3 169/2/3
f 172/2/3 170/2/3 171/2/3
f 173/2/3 166/2/3 163/2/3
f 174/2/3 166/2/3 173/2/3
f 175/3/3 172/3/3 171/3/3
f 176/3/3 172/3/3 175/3/3
f 179/3/3 178/3/3 177/3/3
f 180/3/3 178/3/3 179/3/3
f 181/1/3 180/1/3 179/1/3
f 182/1/3 180/1/3 181/1/3
f 183/2/3 182/2/3 181/2/3
f 184/2/3 182/2/3 183/2/3
f 187/3/3 186/3/3 185/3/3
f 188/3/3 186/3/3 187/3/3
f 189/2/3 188/2/3 187/2/3
f 190/2/3 188/2/3 189/2/3
f 196/4/3 192/4/3 191/4/3
f 197/3/3 193/3/3 192/3/3
f 197/4/3 192/4/3 196/4/3
f 198/3/3 193/3/3 197/3/3
f 199/4/3 195/4/3 194/4/3
f 200/4/3 195/4/3 199/4/3
f 201/4/4 202/4/4 206/4/4
f 202/3/4 203/3/4 207/3/4
f 206/4/4 202/4/4 207/4/4
f 207/3/4 203/3/4 208/3/4
f 204/4/4 205/4/4 209/4/4
f 209/4/4 205/4/4 210/4/4
f 211/1/4 212/1/4 213/1/4
f 213/1/4 212/1/4 214/1/4
f 213/3/4 214/3/4 215/3/4
f 215/3/4 214/3/4 216/3/4
f 217/3/4 218/3/4 219/3/4
f 219/3/4 218/3/4 220/3/4
f 219/2/4 220/2/4 221/2/4
f 221/2/4 220/2/4 222/2/4
f 222/2/4 220/2/4 223/2/4
f 222/3/4 223/3/4 224/3/4
f 224/3/4 223/3/4 225/3/4
f 226/2/4 227/2/4 229/2/4
f 229/2/4 227/2/4 230/2/4
f 228/1/4 229/1/4 232/1/4
f 232/1/4 229/1/4 233/1/4
f 230/1/4 231/1/4 234/1/4
f 232/3/4 233/3/4 235/3/4
f 235/3/4 233/3/4 236/3/4
f 234/1/4 231/1/4 237/1/4
f 237/1/4 231/1/4 238/1/4
f 235/1/4 236/1/4 239/1/4
f 239/1/4 236/1/4 240/1/4
f 237/3/4 238/3/4 241/3/4
f 241/3/4 238/3/4 242/3/4
f 239/2/4 240/2/4 243/2/4
f 241/2/4 242/2/4 244/2/4
f 244/2/4 242/2/4 245/2/4
f 239/2/4 243/2/4 246/2/4
f 246/2/4 243/2/4 247/2/4
f 244/3/4 245/3/4 248/3/4
f 246/3/4 247/3/4 249/3/4
f 249/3/4 247/3/4 250/3/4
f 248/3/4 245/3/4 251/3/4
f 251/3/4 245/3/4 252/3/4
f 253/3/4 254/3/4 255/3/4
f 255/3/4 254/3/4 256/3/4
f 256/3/4 254/3/4 257/3/4
f 253/3/4 255/3/4 258/3/4
f 255/2/4 256/2/4 259/2/4
f 258/3/4 255/3/4 259/3/4
f 256/1/4 257/1/4 260/1/4
f 259/2/4 256/2/4 260/2/4
f 260/1/4 257/1/4 261/1/4
f 258/1/4 259/1/4 262/1/4
f 259/2/4 260/2/4 262/2/4
f 260/3/4 261/3/4 263/3/4
f 262/2/4 260/2/4 263/2/4
f 262/1/4 263/1/4 264/1/4
f 263/3/4 261/3/4 264/3/4
f 264/3/4 261/3/4 265/3/4
f 258/1/4 262/1/4 266/1/4
f 262/1/4 264/1/4 266/1/4
f 264/2/4 265/2/4 267/2/4
f 266/1/4 264/1/4 267/1/4
f 267/2/4 265/2/4 268/2/4
f 266/2/4 267/2/4 269/2/4
f 269/2/4 267/2/4 270/2/4
f 267/3/4 268/3/4 271/3/4
f 270/2/4 267/2/4 271/2/4
f 271/3/4 268/3/4 272/3/4
f 269/3/4 270/3/4 273/3/4
f 270/1/4 271/1/4 274/1/4
f 273/3/4 270/3/4 274/3/4
f 273/1/4 274/1/4 275/1/4
f 271/2/4 272/2/4 276/2/4
f 275/1/4 274/1/4 276/1/4
f 274/1/4 271/1/4 276/1/4
f 276/2/4 272/2/4 277/2/4
f 280/4/5 279/4/5 278/4/5
f 281/4/5 279/4/5 280/4/5
f 285/3/5 283/3/5 282/3/5
f 286/2/5 284/2/5 283/2/5
f 286/3/5 283/3/5 285/3/5
f 287/2/5 284/2/5 286/2/5
f 288/3/5 285/3/5 282/3/5
f 289/3/5 285/3/5 288/3/5
f 290/3/5 287/3/5 286/3/5
f 291/1/5 289/1/5 288/1/5
f 292/3/5 290/3/5 289/3/5
f 292/1/5 289/1/5 291/1/5
f 293/3/5 287/3/5 290/3/5
f 293/3/5 290/3/5 292/3/5
f 298/2/5 295/2/5 294/2/5
f 298/3/5 296/3/5 295/3/5
f 299/2/5 297/2/5 296/2/5
f 299/3/5 296/3/5 298/3/5
f 300/2/5 298/2/5 294/2/5
f 300/2/5 299/2/5 298/2/5
f 301/2/5 299/2/5 300/2/5
f 302/2/5 297/2/5 299/2/5
f 302/2/5 299/2/5 301/2/5
f 303/2/5 297/2/5 302/2/5
f 304/2/5 297/2/5 303/2/5
f 305/2/5 297/2/5 304/2/5
f 306/1/5 301/1/5 300/1/5
f 307/1/5 306/1/5 300/1/5
f 309/3/5 305/3/5 304/3/5
f 310/1/5 308/1/5 307/1/5
f 310/1/5 307/1/5 300/1/5
f 311/1/5 308/1/5 310/1/5
f 312/3/5 309/3/5 308/3/5
f 312/1/5 308/1/5 311/1/5
f 313/3/5 305/3/5 309/3/5
f 313/3/5 309/3/5 312/3/5
f 314/1/5 310/1/5 300/1/5
f 315/3/5 311/3/5 310/3/5
f 315/1/5 310/1/5 314/1/5
f 316/1/5 312/1/5 311/1/5
f 316/3/5 311/3/5 315/3/5
f 317/2/5 313/2/5 312/2/5
f 317/1/5 312/1/5 316/1/5
f 318/3/5 305/3/5 313/3/5
f 318/2/5 313/2/5 317/2/5
f 319/3/5 305/3/5 318/3/5
f 326/2/5 321/2/5 320/2/5
f 327/3/5 322/3/5 321/3/5
f 327/2/5 321/2/5 326/2/5
f 328/3/5 322/3/5 327/3/5
f 329/2/5 323/2/5 322/2/5
f 329/3/5 322/3/5 328/3/5
f 330/1/5 324/1/5 323/1/5
f 330/2/5 323/2/5 329/2/5
f 331/1/5 326/1/5 325/1/5
f 332/1/5 326/1/5 331/1/5
f 333/2/5 332/2/5 331/2/5
f 334/1/5 324/1/5 330/1/5
f 335/1/5 324/1/5 334/1/5
f 336/2/5 333/2/5 331/2/5
f 337/2/5 333/2/5 336/2/5
f 338/2/5 335/2/5 334/2/5
f 339/2/5 335/2/5 338/2/5
f 340/3/5 337/3/5 336/3/5
f 341/3/5 337/3/5 340/3/5
f 342/3/5 339/3/5 338/3/5
f 343/3/5 339/3/5 342/3/5
f 344/2/5 341/2/5 340/2/5
f 345/2/5 341/2/5 344/2/5
f 351/2/5 343/2/5 342/2/5
f 352/2/5 343/2/5 351/2/5
f 353/3/5 346/3/5 345/3/5
f 353/3/5 347/3/5 346/3/5
f 354/1/5 348/1/5 347/1/5
f 354/3/5 347/3/5 353/3/5
f 354/1/5 349/1/5 348/1/5
f 355/2/5 350/2/5 349/2/5
f 355/1/5 349/1/5 354/1/5
f 356/3/5 351/3/5 350/3/5
f 356/2/5 350/2/5 355/2/5
f 357/1/5 352/1/5 351/1/5
f 357/3/5 351/3/5 356/3/5
f 358/1/5 352/1/5 357/1/5
f 361/3/5 360/3/5 359/3/5
f 362/3/5 360/3/5 361/3/5
f 363/3/6 364/3/6 369/3/6
f 364/1/6 365/1/6 369/1/6
f 369/1/6 365/1/6 370/1/6
f 365/2/6 366/2/6 371/2/6
f 370/1/6 365/1/6 371/1/6
f 366/1/6 367/1/6 372/1/6
f 371/2/6 366/2/6 372/2/6
f 367/3/6 368/3/6 373/3/6
f 372/1/6 367/1/6 373/1/6
f 373/3/6 368/3/6 374/3/6
f 374/3/6 368/3/6 375/3/6
f 375/3/6 368/3/6 376/3/6
f 363/3/6 369/3/6 377/3/6
f 363/3/6 377/3/6 378/3/6
f 363/3/6 378/3/6 379/3/6
f 376/3/6 368/3/6 380/3/6
f 380/3/6 368/3/6 381/3/6
f 380/1/6 381/1/6 382/1/6
f 382/1/6 381/1/6 383/1/6
f 363/3/6 379/3/6 384/3/6
f 384/3/6 379/3/6 385/3/6
f 384/2/6 385/2/6 386/2/6
f 386/2/6 385/2/6 387/2/6
f 382/3/6 383/3/6 393/3/6
f 393/3/6 383/3/6 394/3/6
f 387/3/6 388/3/6 395/3/6
f 388/1/6 389/1/6 396/1/6
f 395/3/6 388/3/6 396/3/6
f 389/3/6 390/3/6 397/3/6
f 396/1/6 389/1/6 397/1/6
f 390/2/6 391/2/6 398/2/6
f 397/3/6 390/3/6 398/3/6
f 391/3/6 392/3/6 399/3/6
f 398/2/6 391/2/6 399/2/6
f 393/2/6 394/2/6 400/2/6
f 399/3/6 392/3/6 400/3/6
f 392/2/6 393/2/6 400/2/6
f 400/2/6 394/2/6 401/2/6
f 402/1/6 403/1/6 408/1/6
f 403/3/6 404/3/6 409/3/6
f 408/1/6 403/1/6 409/1/6
f 404/1/6 405/1/6 410/1/6
f 409/3/6 404/3/6 410/3/6
f 405/2/6 406/2/6 411/2/6
f 410/1/6 405/1/6 411/1/6
f 406/3/6 407/3/6 412/3/6
f 411/2/6 406/2/6 412/2/6
f 408/2/6 409/2/6 413/2/6
f 413/2/6 409/2/6 414/2/6
f 412/3/6 407/3/6 415/3/6
f 413/1/6 414/1/6 416/1/6
f 416/1/6 414/1/6 417/1/6
f 415/3/6 407/3/6 418/3/6
f 418/3/6 407/3/6 419/3/6
f 418/1/6 419/1/6 420/1/6
f 420/1/6 419/1/6 421/1/6
f 416/3/6 417/3/6 422/3/6
f 422/3/6 417/3/6 423/3/6
f 420/3/6 421/3/6 427/3/6
f 422/1/6 423/1/6 428/1/6
f 423/1/6 424/1/6 428/1/6
f 424/3/6 425/3/6 429/3/6
f 428/1/6 424/1/6 429/1/6
f 425/2/6 426/2/6 430/2/6
f 429/3/6 425/3/6 430/3/6
f 426/3/6 427/3/6 431/3/6
f 430/2/6 426/2/6 431/2/6
f 427/3/6 421/3/6 432/3/6
f 431/3/6 427/3/6 432/3/6
f 433/3/6 434/3/6 437/3/6
f 437/3/6 434/3/6 438/3/6
f 434/1/6 435/1/6 439/1/6
f 438/3/6 434/3/6 439/3/6
f 435/2/6 436/2/6 440/2/6
f 439/1/6 435/1/6 440/1/6
f 440/2/6 436/2/6 441/2/6
f 437/1/6 438/1/6 442/1/6
f 438/2/6 439/2/6 443/2/6
f 442/1/6 438/1/6 443/1/6
f 439/2/6 440/2/6 443/2/6
f 443/2/6 440/2/6 444/2/6
f 444/2/6 440/2/6 445/2/6
f 443/2/6 444/2/6 446/2/6
f 445/2/6 440/2/6 447/2/6
f 443/2/6 446/2/6 448/2/6
f 446/3/6 447/3/6 448/3/6
f 447/2/6 440/2/6 449/2/6
f 448/3/6 447/3/6 449/3/6
f 440/1/6 441/1/6 450/1/6
f 449/2/6 440/2/6 450/2/6
f 450/1/6 441/1/6 451/1/6
f 442/3/6 443/3/6 452/3/6
f 448/2/6 449/2/6 453/2/6
f 452/3/6 443/3/6 453/3/6
f 443/2/6 448/2/6 453/2/6
f 449/2/6 450/2/6 453/2/6
f 450/3/6 451/3/6 454/3/6
f 453/2/6 450/2/6 454/2/6
f 454/3/6 451/3/6 455/3/6
f 456/4/6 457/4/6 458/4/6
f 458/4/6 457/4/6 459/4/6
