# MagicaVoxel @ Ephtracy

# group
o 

# material
mtllib shovel.mtl
usemtl palette

# normals
vn -1 0 0
vn 1 0 0
vn 0 0 1
vn 0 0 -1
vn 0 -1 0
vn 0 1 0

# texcoords
vt 0.177734 0.5
vt 0.966797 0.5
vt 0.974609 0.5

# verts
v -1.1 0 0.1
v -1.1 0 -2.98023e-08
v -1.1 0 -0.1
v -1.1 0 -0.2
v -1.1 0.1 0.1
v -1.1 0.1 -2.98023e-08
v -1.1 0.1 -0.1
v -1.1 0.1 -0.2
v -1 0 0.2
v -1 0 0.1
v -1 0 -0.2
v -1 0 -0.3
v -1 0.1 0.2
v -1 0.1 0.1
v -1 0.1 -0.2
v -1 0.1 -0.3
v -0.9 0 0.3
v -0.9 0 0.2
v -0.9 0 -0.3
v -0.9 0 -0.4
v -0.9 0.1 0.3
v -0.9 0.1 0.2
v -0.9 0.1 -0.3
v -0.9 0.1 -0.4
v -0.3 0 0.1
v -0.3 0 -2.98023e-08
v -0.3 0 -0.1
v -0.3 0 -0.2
v -0.3 0.1 0.1
v -0.3 0.1 -2.98023e-08
v -0.3 0.1 -0.1
v -0.3 0.1 -0.2
v -0.3 0.2 -2.98023e-08
v -0.3 0.2 -0.1
v -0.4 0 0.3
v -0.4 0 -2.98023e-08
v -0.4 0 -0.1
v -0.4 0 -0.4
v -0.4 0.1 0.3
v -0.4 0.1 -2.98023e-08
v -0.4 0.1 -0.1
v -0.4 0.1 -0.4
v 1.5 0 0.1
v 1.5 0 -0.2
v 1.5 0.1 0.1
v 1.5 0.1 -2.98023e-08
v 1.5 0.1 -0.1
v 1.5 0.1 -0.2
v 1.5 0.2 -2.98023e-08
v 1.5 0.2 -0.1
v -0.9 0 0.3
v -0.9 0.1 0.3
v -0.5 0 0.3
v -0.5 0.1 0.3
v -0.4 0 0.3
v -0.4 0.1 0.3
v -1 0 0.2
v -1 0.1 0.2
v -0.9 0 0.2
v -0.9 0.1 0.2
v -1.1 0 0.1
v -1.1 0.1 0.1
v -1 0 0.1
v -1 0.1 0.1
v -0.3 0 0.1
v -0.3 0.1 0.1
v 1.5 0 0.1
v 1.5 0.1 0.1
v -0.4 0 -2.98023e-08
v -0.4 0.1 -2.98023e-08
v -0.3 0 -2.98023e-08
v -0.3 0.1 -2.98023e-08
v -0.3 0.2 -2.98023e-08
v 1.5 0.1 -2.98023e-08
v 1.5 0.2 -2.98023e-08
v -0.4 0 -0.1
v -0.4 0.1 -0.1
v -0.3 0 -0.1
v -0.3 0.1 -0.1
v -0.3 0.2 -0.1
v 1.5 0.1 -0.1
v 1.5 0.2 -0.1
v -1.1 0 -0.2
v -1.1 0.1 -0.2
v -1 0 -0.2
v -1 0.1 -0.2
v -0.3 0 -0.2
v -0.3 0.1 -0.2
v 1.5 0 -0.2
v 1.5 0.1 -0.2
v -1 0 -0.3
v -1 0.1 -0.3
v -0.9 0 -0.3
v -0.9 0.1 -0.3
v -0.9 0 -0.4
v -0.9 0.1 -0.4
v -0.5 0 -0.4
v -0.5 0.1 -0.4
v -0.4 0 -0.4
v -0.4 0.1 -0.4
v -0.9 0 0.3
v -0.5 0 0.3
v -0.4 0 0.3
v -1 0 0.2
v -0.9 0 0.2
v -1.1 0 0.1
v -1 0 0.1
v -0.3 0 0.1
v 1.5 0 0.1
v -1.1 0 -2.98023e-08
v -0.5 0 -2.98023e-08
v -0.4 0 -2.98023e-08
v -0.3 0 -2.98023e-08
v -1.1 0 -0.1
v -0.5 0 -0.1
v -0.4 0 -0.1
v -0.3 0 -0.1
v -1.1 0 -0.2
v -1 0 -0.2
v -0.3 0 -0.2
v 1.5 0 -0.2
v -1 0 -0.3
v -0.9 0 -0.3
v -0.9 0 -0.4
v -0.5 0 -0.4
v -0.4 0 -0.4
v -0.9 0.1 0.3
v -0.5 0.1 0.3
v -0.4 0.1 0.3
v -1 0.1 0.2
v -0.9 0.1 0.2
v -1.1 0.1 0.1
v -1 0.1 0.1
v -0.3 0.1 0.1
v 1.5 0.1 0.1
v -1.1 0.1 -2.98023e-08
v -0.5 0.1 -2.98023e-08
v -0.4 0.1 -2.98023e-08
v -0.3 0.1 -2.98023e-08
v 1.5 0.1 -2.98023e-08
v -1.1 0.1 -0.1
v -0.5 0.1 -0.1
v -0.4 0.1 -0.1
v -0.3 0.1 -0.1
v 1.5 0.1 -0.1
v -1.1 0.1 -0.2
v -1 0.1 -0.2
v -0.3 0.1 -0.2
v 1.5 0.1 -0.2
v -1 0.1 -0.3
v -0.9 0.1 -0.3
v -0.9 0.1 -0.4
v -0.5 0.1 -0.4
v -0.4 0.1 -0.4
v -0.3 0.2 -2.98023e-08
v 1.5 0.2 -2.98023e-08
v -0.3 0.2 -0.1
v 1.5 0.2 -0.1

# faces
f 5/2/1 2/2/1 1/2/1
f 6/3/1 3/3/1 2/3/1
f 6/2/1 2/2/1 5/2/1
f 7/2/1 4/2/1 3/2/1
f 7/3/1 3/3/1 6/3/1
f 8/2/1 4/2/1 7/2/1
f 13/2/1 10/2/1 9/2/1
f 14/2/1 10/2/1 13/2/1
f 15/2/1 12/2/1 11/2/1
f 16/2/1 12/2/1 15/2/1
f 21/2/1 18/2/1 17/2/1
f 22/2/1 18/2/1 21/2/1
f 23/2/1 20/2/1 19/2/1
f 24/2/1 20/2/1 23/2/1
f 29/1/1 26/1/1 25/1/1
f 30/1/1 26/1/1 29/1/1
f 31/1/1 28/1/1 27/1/1
f 32/1/1 28/1/1 31/1/1
f 33/1/1 31/1/1 30/1/1
f 34/1/1 31/1/1 33/1/1
f 35/3/2 36/3/2 39/3/2
f 39/3/2 36/3/2 40/3/2
f 37/3/2 38/3/2 41/3/2
f 41/3/2 38/3/2 42/3/2
f 43/1/2 44/1/2 45/1/2
f 45/1/2 44/1/2 46/1/2
f 46/1/2 44/1/2 47/1/2
f 47/1/2 44/1/2 48/1/2
f 46/1/2 47/1/2 49/1/2
f 49/1/2 47/1/2 50/1/2
f 53/2/3 52/2/3 51/2/3
f 54/2/3 52/2/3 53/2/3
f 55/3/3 54/3/3 53/3/3
f 56/3/3 54/3/3 55/3/3
f 59/2/3 58/2/3 57/2/3
f 60/2/3 58/2/3 59/2/3
f 63/2/3 62/2/3 61/2/3
f 64/2/3 62/2/3 63/2/3
f 67/1/3 66/1/3 65/1/3
f 68/1/3 66/1/3 67/1/3
f 71/3/3 70/3/3 69/3/3
f 72/3/3 70/3/3 71/3/3
f 74/1/3 73/1/3 72/1/3
f 75/1/3 73/1/3 74/1/3
f 76/3/4 77/3/4 78/3/4
f 78/3/4 77/3/4 79/3/4
f 79/1/4 80/1/4 81/1/4
f 81/1/4 80/1/4 82/1/4
f 83/2/4 84/2/4 85/2/4
f 85/2/4 84/2/4 86/2/4
f 87/1/4 88/1/4 89/1/4
f 89/1/4 88/1/4 90/1/4
f 91/2/4 92/2/4 93/2/4
f 93/2/4 92/2/4 94/2/4
f 95/2/4 96/2/4 97/2/4
f 97/2/4 96/2/4 98/2/4
f 97/3/4 98/3/4 99/3/4
f 99/3/4 98/3/4 100/3/4
f 105/2/5 102/2/5 101/2/5
f 107/2/5 105/2/5 104/2/5
f 110/2/5 107/2/5 106/2/5
f 111/3/5 103/3/5 102/3/5
f 111/2/5 107/2/5 110/2/5
f 111/2/5 102/2/5 105/2/5
f 111/2/5 105/2/5 107/2/5
f 112/3/5 103/3/5 111/3/5
f 113/1/5 109/1/5 108/1/5
f 114/3/5 112/3/5 111/3/5
f 114/3/5 113/3/5 112/3/5
f 114/3/5 111/3/5 110/3/5
f 115/3/5 113/3/5 114/3/5
f 116/3/5 113/3/5 115/3/5
f 117/1/5 109/1/5 113/1/5
f 117/3/5 113/3/5 116/3/5
f 118/2/5 115/2/5 114/2/5
f 119/2/5 115/2/5 118/2/5
f 120/1/5 109/1/5 117/1/5
f 121/1/5 109/1/5 120/1/5
f 122/2/5 115/2/5 119/2/5
f 123/2/5 115/2/5 122/2/5
f 124/2/5 115/2/5 123/2/5
f 125/3/5 116/3/5 115/3/5
f 125/2/5 115/2/5 124/2/5
f 126/3/5 116/3/5 125/3/5
f 127/2/6 128/2/6 131/2/6
f 130/2/6 131/2/6 133/2/6
f 132/2/6 133/2/6 136/2/6
f 128/3/6 129/3/6 137/3/6
f 136/2/6 133/2/6 137/2/6
f 131/2/6 128/2/6 137/2/6
f 133/2/6 131/2/6 137/2/6
f 137/3/6 129/3/6 138/3/6
f 134/1/6 135/1/6 139/1/6
f 139/1/6 135/1/6 140/1/6
f 137/3/6 138/3/6 141/3/6
f 136/3/6 137/3/6 141/3/6
f 138/3/6 139/3/6 141/3/6
f 141/3/6 139/3/6 142/3/6
f 142/3/6 139/3/6 143/3/6
f 143/3/6 139/3/6 144/3/6
f 141/2/6 142/2/6 146/2/6
f 146/2/6 142/2/6 147/2/6
f 144/1/6 145/1/6 148/1/6
f 148/1/6 145/1/6 149/1/6
f 147/2/6 142/2/6 150/2/6
f 150/2/6 142/2/6 151/2/6
f 151/2/6 142/2/6 152/2/6
f 142/3/6 143/3/6 153/3/6
f 152/2/6 142/2/6 153/2/6
f 153/3/6 143/3/6 154/3/6
f 155/1/6 156/1/6 157/1/6
f 157/1/6 156/1/6 158/1/6
