# MagicaVoxel @ Ephtracy

# group
o 

# material
mtllib Sprout.mtl
usemtl palette

# normals
vn -1 0 0
vn 1 0 0
vn 0 0 1
vn 0 0 -1
vn 0 -1 0
vn 0 1 0

# texcoords
vt 0.623047 0.5
vt 0.955078 0.5

# verts
v -0.1 0.2 -0.1
v -0.1 0.2 -0.2
v -0.1 0.3 -0.1
v -0.1 0.3 -0.2
v -4.47035e-08 0 -0.1
v -4.47035e-08 0 -0.2
v -4.47035e-08 0.2 -0.1
v -4.47035e-08 0.2 -0.2
v -4.47035e-08 0.3 0.1
v -4.47035e-08 0.3 -0.1
v -4.47035e-08 0.3 -0.2
v -4.47035e-08 0.3 -0.4
v -4.47035e-08 0.4 0.1
v -4.47035e-08 0.4 4.47035e-08
v -4.47035e-08 0.4 -0.1
v -4.47035e-08 0.4 -0.2
v -4.47035e-08 0.4 -0.3
v -4.47035e-08 0.4 -0.4
v -4.47035e-08 0.5 4.47035e-08
v -4.47035e-08 0.5 -0.1
v -4.47035e-08 0.6 -0.2
v -4.47035e-08 0.6 -0.3
v 0.1 0 -0.1
v 0.1 0 -0.2
v 0.1 0.3 0.1
v 0.1 0.3 4.47035e-08
v 0.1 0.3 -0.1
v 0.1 0.3 -0.2
v 0.1 0.3 -0.4
v 0.1 0.4 0.1
v 0.1 0.4 4.47035e-08
v 0.1 0.4 -0.1
v 0.1 0.4 -0.2
v 0.1 0.4 -0.3
v 0.1 0.4 -0.4
v 0.1 0.5 4.47035e-08
v 0.1 0.5 -0.1
v 0.1 0.6 -0.2
v 0.1 0.6 -0.3
v 0.2 0.3 4.47035e-08
v 0.2 0.3 -0.1
v 0.2 0.4 4.47035e-08
v 0.2 0.4 -0.1
v -4.47035e-08 0.3 0.1
v -4.47035e-08 0.4 0.1
v 0.1 0.3 0.1
v 0.1 0.4 0.1
v -4.47035e-08 0.4 4.47035e-08
v -4.47035e-08 0.5 4.47035e-08
v 0.1 0.3 4.47035e-08
v 0.1 0.4 4.47035e-08
v 0.1 0.5 4.47035e-08
v 0.2 0.3 4.47035e-08
v 0.2 0.4 4.47035e-08
v -0.1 0.2 -0.1
v -0.1 0.3 -0.1
v -4.47035e-08 0 -0.1
v -4.47035e-08 0.2 -0.1
v -4.47035e-08 0.3 -0.1
v 0.1 0 -0.1
v 0.1 0.3 -0.1
v -4.47035e-08 0.4 -0.2
v -4.47035e-08 0.6 -0.2
v 0.1 0.4 -0.2
v 0.1 0.6 -0.2
v -4.47035e-08 0.4 -0.1
v -4.47035e-08 0.5 -0.1
v 0.1 0.3 -0.1
v 0.1 0.4 -0.1
v 0.1 0.5 -0.1
v 0.2 0.3 -0.1
v 0.2 0.4 -0.1
v -0.1 0.2 -0.2
v -0.1 0.3 -0.2
v -4.47035e-08 0 -0.2
v -4.47035e-08 0.2 -0.2
v -4.47035e-08 0.3 -0.2
v 0.1 0 -0.2
v 0.1 0.3 -0.2
v -4.47035e-08 0.4 -0.3
v -4.47035e-08 0.6 -0.3
v 0.1 0.4 -0.3
v 0.1 0.6 -0.3
v -4.47035e-08 0.3 -0.4
v -4.47035e-08 0.4 -0.4
v 0.1 0.3 -0.4
v 0.1 0.4 -0.4
v -4.47035e-08 0 -0.1
v 0.1 0 -0.1
v -4.47035e-08 0 -0.2
v 0.1 0 -0.2
v -0.1 0.2 -0.1
v -4.47035e-08 0.2 -0.1
v -0.1 0.2 -0.2
v -4.47035e-08 0.2 -0.2
v -4.47035e-08 0.3 0.1
v 0.1 0.3 0.1
v 0.1 0.3 4.47035e-08
v 0.2 0.3 4.47035e-08
v -4.47035e-08 0.3 -0.1
v 0.1 0.3 -0.1
v 0.2 0.3 -0.1
v -4.47035e-08 0.3 -0.2
v 0.1 0.3 -0.2
v -4.47035e-08 0.3 -0.4
v 0.1 0.3 -0.4
v -0.1 0.3 -0.1
v -4.47035e-08 0.3 -0.1
v -0.1 0.3 -0.2
v -4.47035e-08 0.3 -0.2
v -4.47035e-08 0.4 0.1
v 0.1 0.4 0.1
v -4.47035e-08 0.4 4.47035e-08
v 0.1 0.4 4.47035e-08
v 0.2 0.4 4.47035e-08
v -4.47035e-08 0.4 -0.1
v 0.1 0.4 -0.1
v 0.2 0.4 -0.1
v -4.47035e-08 0.4 -0.2
v 0.1 0.4 -0.2
v -4.47035e-08 0.4 -0.3
v 0.1 0.4 -0.3
v -4.47035e-08 0.4 -0.4
v 0.1 0.4 -0.4
v -4.47035e-08 0.5 4.47035e-08
v 0.1 0.5 4.47035e-08
v -4.47035e-08 0.5 -0.1
v 0.1 0.5 -0.1
v -4.47035e-08 0.6 -0.2
v 0.1 0.6 -0.2
v -4.47035e-08 0.6 -0.3
v 0.1 0.6 -0.3

# faces
f 3/1/1 2/1/1 1/1/1
f 4/1/1 2/1/1 3/1/1
f 7/2/1 6/2/1 5/2/1
f 8/2/1 6/2/1 7/2/1
f 13/1/1 11/1/1 10/1/1
f 13/1/1 12/1/1 11/1/1
f 13/1/1 10/1/1 9/1/1
f 14/1/1 12/1/1 13/1/1
f 15/1/1 12/1/1 14/1/1
f 16/1/1 12/1/1 15/1/1
f 17/1/1 12/1/1 16/1/1
f 18/1/1 12/1/1 17/1/1
f 19/1/1 15/1/1 14/1/1
f 20/1/1 15/1/1 19/1/1
f 21/1/1 17/1/1 16/1/1
f 22/1/1 17/1/1 21/1/1
f 23/2/2 24/2/2 27/2/2
f 27/2/2 24/2/2 28/2/2
f 25/1/2 26/1/2 30/1/2
f 30/1/2 26/1/2 31/1/2
f 28/1/2 29/1/2 32/1/2
f 27/1/2 28/1/2 32/1/2
f 32/1/2 29/1/2 33/1/2
f 33/1/2 29/1/2 34/1/2
f 34/1/2 29/1/2 35/1/2
f 31/1/2 32/1/2 36/1/2
f 36/1/2 32/1/2 37/1/2
f 33/1/2 34/1/2 38/1/2
f 38/1/2 34/1/2 39/1/2
f 40/1/2 41/1/2 42/1/2
f 42/1/2 41/1/2 43/1/2
f 46/1/3 45/1/3 44/1/3
f 47/1/3 45/1/3 46/1/3
f 51/1/3 49/1/3 48/1/3
f 52/1/3 49/1/3 51/1/3
f 53/1/3 51/1/3 50/1/3
f 54/1/3 51/1/3 53/1/3
f 58/1/3 56/1/3 55/1/3
f 59/1/3 56/1/3 58/1/3
f 60/2/3 58/2/3 57/2/3
f 60/2/3 59/2/3 58/2/3
f 61/2/3 59/2/3 60/2/3
f 64/1/3 63/1/3 62/1/3
f 65/1/3 63/1/3 64/1/3
f 66/1/4 67/1/4 69/1/4
f 69/1/4 67/1/4 70/1/4
f 68/1/4 69/1/4 71/1/4
f 71/1/4 69/1/4 72/1/4
f 73/1/4 74/1/4 76/1/4
f 76/1/4 74/1/4 77/1/4
f 75/2/4 76/2/4 78/2/4
f 76/2/4 77/2/4 78/2/4
f 78/2/4 77/2/4 79/2/4
f 80/1/4 81/1/4 82/1/4
f 82/1/4 81/1/4 83/1/4
f 84/1/4 85/1/4 86/1/4
f 86/1/4 85/1/4 87/1/4
f 90/2/5 89/2/5 88/2/5
f 91/2/5 89/2/5 90/2/5
f 94/1/5 93/1/5 92/1/5
f 95/1/5 93/1/5 94/1/5
f 98/1/5 97/1/5 96/1/5
f 100/1/5 98/1/5 96/1/5
f 100/1/5 99/1/5 98/1/5
f 101/1/5 99/1/5 100/1/5
f 102/1/5 99/1/5 101/1/5
f 105/1/5 104/1/5 103/1/5
f 106/1/5 104/1/5 105/1/5
f 107/1/6 108/1/6 109/1/6
f 109/1/6 108/1/6 110/1/6
f 111/1/6 112/1/6 113/1/6
f 113/1/6 112/1/6 114/1/6
f 114/1/6 115/1/6 117/1/6
f 117/1/6 115/1/6 118/1/6
f 116/1/6 117/1/6 119/1/6
f 119/1/6 117/1/6 120/1/6
f 121/1/6 122/1/6 123/1/6
f 123/1/6 122/1/6 124/1/6
f 125/1/6 126/1/6 127/1/6
f 127/1/6 126/1/6 128/1/6
f 129/1/6 130/1/6 131/1/6
f 131/1/6 130/1/6 132/1/6
